<?xml version="1.0" encoding="utf-8" standalone="no"?>
<!DOCTYPE svg PUBLIC "-//W3C//DTD SVG 1.1//EN"
  "http://www.w3.org/Graphics/SVG/1.1/DTD/svg11.dtd">
<svg xmlns:xlink="http://www.w3.org/1999/xlink" width="445.2376pt" height="457.92pt" viewBox="0 0 445.2376 457.92" xmlns="http://www.w3.org/2000/svg" version="1.1">
 <metadata>
  <rdf:RDF xmlns:dc="http://purl.org/dc/elements/1.1/" xmlns:cc="http://creativecommons.org/ns#" xmlns:rdf="http://www.w3.org/1999/02/22-rdf-syntax-ns#">
   <cc:Work>
    <dc:type rdf:resource="http://purl.org/dc/dcmitype/StillImage"/>
    <dc:date>2023-03-11T21:19:31.773899</dc:date>
    <dc:format>image/svg+xml</dc:format>
    <dc:creator>
     <cc:Agent>
      <dc:title>Matplotlib v3.6.3, https://matplotlib.org/</dc:title>
     </cc:Agent>
    </dc:creator>
   </cc:Work>
  </rdf:RDF>
 </metadata>
 <defs>
  <style type="text/css">*{stroke-linejoin: round; stroke-linecap: butt}</style>
 </defs>
 <g id="figure_1">
  <g id="axes_1">
   <g id="patch_1">
    <path d="M 7.2 450.72 
L 438.0376 450.72 
L 438.0376 7.2 
L 7.2 7.2 
z
" style="fill: #ffffff"/>
   </g>
   <g id="PathCollection_1">
    <defs>
     <path id="m2128745ea4" d="M 0 3.162278 
C 0.838646 3.162278 1.643056 2.82908 2.236068 2.236068 
C 2.82908 1.643056 3.162278 0.838646 3.162278 0 
C 3.162278 -0.838646 2.82908 -1.643056 2.236068 -2.236068 
C 1.643056 -2.82908 0.838646 -3.162278 0 -3.162278 
C -0.838646 -3.162278 -1.643056 -2.82908 -2.236068 -2.236068 
C -2.82908 -1.643056 -3.162278 -0.838646 -3.162278 0 
C -3.162278 0.838646 -2.82908 1.643056 -2.236068 2.236068 
C -1.643056 2.82908 -0.838646 3.162278 0 3.162278 
z
" style="stroke: #0000ff"/>
    </defs>
    <g clip-path="url(#pc1afc1f438)">
     <use xlink:href="#m2128745ea4" x="352.947681" y="243.238317" style="fill: #0000ff; stroke: #0000ff"/>
    </g>
   </g>
   <g id="LineCollection_1">
    <path d="M 381.634754 389.410075 
L 378.217601 398.263271 
" clip-path="url(#pc1afc1f438)" style="fill: none; stroke: #808080"/>
    <path d="M 381.634754 389.410075 
L 382.337415 396.634795 
L 385.91729 405.924257 
" clip-path="url(#pc1afc1f438)" style="fill: none; stroke: #808080"/>
    <path d="M 381.634754 389.410075 
L 382.156203 384.848084 
L 383.568922 379.849827 
L 400.491965 337.185997 
" clip-path="url(#pc1afc1f438)" style="fill: none; stroke: #808080"/>
    <path d="M 15.485338 310.081076 
L 175.740196 176.609931 
L 190.496083 164.323019 
" clip-path="url(#pc1afc1f438)" style="fill: none; stroke: #808080"/>
    <path d="M 120.052437 64.132219 
L 116.509545 27.63253 
" clip-path="url(#pc1afc1f438)" style="fill: none; stroke: #808080"/>
    <path d="M 120.052437 64.132219 
L 133.543534 77.622624 
L 140.50358 87.348353 
L 145.662593 100.838758 
L 151.613025 114.528492 
L 190.496083 164.323019 
" clip-path="url(#pc1afc1f438)" style="fill: none; stroke: #808080"/>
    <path d="M 120.052437 64.132219 
L 102.99256 59.370899 
L 88.129424 55.406894 
L 76.224862 55.406894 
L 55.991914 63.940412 
L 47.445334 66.114221 
L 20.463139 68.494881 
" clip-path="url(#pc1afc1f438)" style="fill: none; stroke: #808080"/>
    <path d="M 20.463139 68.494881 
L 47.445334 66.114221 
L 55.991914 63.940412 
L 76.224862 55.406894 
L 88.129424 55.406894 
L 102.99256 59.370899 
L 120.052437 64.132219 
" clip-path="url(#pc1afc1f438)" style="fill: none; stroke: #808080"/>
    <path d="M 190.496083 164.323019 
L 175.740196 176.609931 
L 15.485338 310.081076 
" clip-path="url(#pc1afc1f438)" style="fill: none; stroke: #808080"/>
    <path d="M 190.496083 164.323019 
L 234.737859 218.878865 
L 336.660732 350.58614 
" clip-path="url(#pc1afc1f438)" style="fill: none; stroke: #808080"/>
    <path d="M 190.496083 164.323019 
L 151.613025 114.528492 
L 145.662593 100.838758 
L 140.50358 87.348353 
L 133.543534 77.622624 
L 120.052437 64.132219 
" clip-path="url(#pc1afc1f438)" style="fill: none; stroke: #808080"/>
    <path d="M 378.217601 398.263271 
L 369.504601 419.847168 
" clip-path="url(#pc1afc1f438)" style="fill: none; stroke: #808080"/>
    <path d="M 378.217601 398.263271 
L 385.91729 405.924257 
" clip-path="url(#pc1afc1f438)" style="fill: none; stroke: #808080"/>
    <path d="M 378.217601 398.263271 
L 381.634754 389.410075 
" clip-path="url(#pc1afc1f438)" style="fill: none; stroke: #808080"/>
    <path d="M 378.217601 398.263271 
L 366.490554 386.96548 
L 347.097101 363.358211 
" clip-path="url(#pc1afc1f438)" style="fill: none; stroke: #808080"/>
    <path d="M 116.509545 27.63253 
L 120.052437 64.132219 
" clip-path="url(#pc1afc1f438)" style="fill: none; stroke: #808080"/>
    <path d="M 116.509545 27.63253 
L 164.519804 27.63253 
L 221.653565 15.729231 
" clip-path="url(#pc1afc1f438)" style="fill: none; stroke: #808080"/>
    <path d="M 361.327842 442.190769 
L 369.504601 419.847168 
" clip-path="url(#pc1afc1f438)" style="fill: none; stroke: #808080"/>
    <path d="M 361.327842 442.190769 
L 318.517277 403.885841 
L 330.847134 386.273471 
" clip-path="url(#pc1afc1f438)" style="fill: none; stroke: #808080"/>
    <path d="M 330.847134 386.273471 
L 347.097101 363.358211 
" clip-path="url(#pc1afc1f438)" style="fill: none; stroke: #808080"/>
    <path d="M 330.847134 386.273471 
L 369.504601 419.847168 
" clip-path="url(#pc1afc1f438)" style="fill: none; stroke: #808080"/>
    <path d="M 330.847134 386.273471 
L 318.517277 403.885841 
L 361.327842 442.190769 
" clip-path="url(#pc1afc1f438)" style="fill: none; stroke: #808080"/>
    <path d="M 347.097101 363.358211 
L 336.660732 350.58614 
" clip-path="url(#pc1afc1f438)" style="fill: none; stroke: #808080"/>
    <path d="M 347.097101 363.358211 
L 330.847134 386.273471 
" clip-path="url(#pc1afc1f438)" style="fill: none; stroke: #808080"/>
    <path d="M 347.097101 363.358211 
L 366.490554 386.96548 
L 378.217601 398.263271 
" clip-path="url(#pc1afc1f438)" style="fill: none; stroke: #808080"/>
    <path d="M 221.653565 15.729231 
L 330.85453 156.989233 
L 333.735442 158.760624 
L 403.298912 164.759285 
" clip-path="url(#pc1afc1f438)" style="fill: none; stroke: #808080"/>
    <path d="M 221.653565 15.729231 
L 164.519804 27.63253 
L 116.509545 27.63253 
" clip-path="url(#pc1afc1f438)" style="fill: none; stroke: #808080"/>
    <path d="M 403.298912 164.759285 
L 333.735442 158.760624 
L 330.85453 156.989233 
L 221.653565 15.729231 
" clip-path="url(#pc1afc1f438)" style="fill: none; stroke: #808080"/>
    <path d="M 403.298912 164.759285 
L 399.016376 184.143045 
L 400.787822 199.833587 
L 412.385432 230.921318 
L 428.446791 257.905889 
L 429.752261 263.61496 
L 429.31957 269.576011 
L 400.491965 337.185997 
" clip-path="url(#pc1afc1f438)" style="fill: none; stroke: #808080"/>
    <path d="M 369.504601 419.847168 
L 378.217601 398.263271 
" clip-path="url(#pc1afc1f438)" style="fill: none; stroke: #808080"/>
    <path d="M 369.504601 419.847168 
L 361.327842 442.190769 
" clip-path="url(#pc1afc1f438)" style="fill: none; stroke: #808080"/>
    <path d="M 369.504601 419.847168 
L 330.847134 386.273471 
" clip-path="url(#pc1afc1f438)" style="fill: none; stroke: #808080"/>
    <path d="M 385.91729 405.924257 
L 378.217601 398.263271 
" clip-path="url(#pc1afc1f438)" style="fill: none; stroke: #808080"/>
    <path d="M 385.91729 405.924257 
L 382.337415 396.634795 
L 381.634754 389.410075 
" clip-path="url(#pc1afc1f438)" style="fill: none; stroke: #808080"/>
    <path d="M 336.660732 350.58614 
L 347.097101 363.358211 
" clip-path="url(#pc1afc1f438)" style="fill: none; stroke: #808080"/>
    <path d="M 336.660732 350.58614 
L 400.491965 337.185997 
" clip-path="url(#pc1afc1f438)" style="fill: none; stroke: #808080"/>
    <path d="M 336.660732 350.58614 
L 234.737859 218.878865 
L 190.496083 164.323019 
" clip-path="url(#pc1afc1f438)" style="fill: none; stroke: #808080"/>
    <path d="M 400.491965 337.185997 
L 336.660732 350.58614 
" clip-path="url(#pc1afc1f438)" style="fill: none; stroke: #808080"/>
    <path d="M 400.491965 337.185997 
L 383.568922 379.849827 
L 382.156203 384.848084 
L 381.634754 389.410075 
" clip-path="url(#pc1afc1f438)" style="fill: none; stroke: #808080"/>
    <path d="M 400.491965 337.185997 
L 429.31957 269.576011 
L 429.752261 263.61496 
L 428.446791 257.905889 
L 412.385432 230.921318 
L 400.787822 199.833587 
L 399.016376 184.143045 
L 403.298912 164.759285 
" clip-path="url(#pc1afc1f438)" style="fill: none; stroke: #808080"/>
   </g>
   <g id="PathCollection_2">
    <defs>
     <path id="C0_0_30a58da905" d="M 0 3.162278 
C 0.838646 3.162278 1.643056 2.82908 2.236068 2.236068 
C 2.82908 1.643056 3.162278 0.838646 3.162278 -0 
C 3.162278 -0.838646 2.82908 -1.643056 2.236068 -2.236068 
C 1.643056 -2.82908 0.838646 -3.162278 0 -3.162278 
C -0.838646 -3.162278 -1.643056 -2.82908 -2.236068 -2.236068 
C -2.82908 -1.643056 -3.162278 -0.838646 -3.162278 0 
C -3.162278 0.838646 -2.82908 1.643056 -2.236068 2.236068 
C -1.643056 2.82908 -0.838646 3.162278 0 3.162278 
z
"/>
    </defs>
    <g clip-path="url(#pc1afc1f438)">
     <use xlink:href="#C0_0_30a58da905" x="381.634754" y="389.410075" style="fill: #808080"/>
    </g>
    <g clip-path="url(#pc1afc1f438)">
     <use xlink:href="#C0_0_30a58da905" x="15.485338" y="310.081076" style="fill: #808080"/>
    </g>
    <g clip-path="url(#pc1afc1f438)">
     <use xlink:href="#C0_0_30a58da905" x="120.052437" y="64.132219" style="fill: #808080"/>
    </g>
    <g clip-path="url(#pc1afc1f438)">
     <use xlink:href="#C0_0_30a58da905" x="20.463139" y="68.494881" style="fill: #808080"/>
    </g>
    <g clip-path="url(#pc1afc1f438)">
     <use xlink:href="#C0_0_30a58da905" x="190.496083" y="164.323019" style="fill: #808080"/>
    </g>
    <g clip-path="url(#pc1afc1f438)">
     <use xlink:href="#C0_0_30a58da905" x="378.217601" y="398.263271" style="fill: #808080"/>
    </g>
    <g clip-path="url(#pc1afc1f438)">
     <use xlink:href="#C0_0_30a58da905" x="116.509545" y="27.63253" style="fill: #808080"/>
    </g>
    <g clip-path="url(#pc1afc1f438)">
     <use xlink:href="#C0_0_30a58da905" x="361.327842" y="442.190769" style="fill: #808080"/>
    </g>
    <g clip-path="url(#pc1afc1f438)">
     <use xlink:href="#C0_0_30a58da905" x="330.847134" y="386.273471" style="fill: #808080"/>
    </g>
    <g clip-path="url(#pc1afc1f438)">
     <use xlink:href="#C0_0_30a58da905" x="347.097101" y="363.358211" style="fill: #808080"/>
    </g>
    <g clip-path="url(#pc1afc1f438)">
     <use xlink:href="#C0_0_30a58da905" x="221.653565" y="15.729231" style="fill: #808080"/>
    </g>
    <g clip-path="url(#pc1afc1f438)">
     <use xlink:href="#C0_0_30a58da905" x="403.298912" y="164.759285" style="fill: #ff0000"/>
    </g>
    <g clip-path="url(#pc1afc1f438)">
     <use xlink:href="#C0_0_30a58da905" x="369.504601" y="419.847168" style="fill: #808080"/>
    </g>
    <g clip-path="url(#pc1afc1f438)">
     <use xlink:href="#C0_0_30a58da905" x="385.91729" y="405.924257" style="fill: #808080"/>
    </g>
    <g clip-path="url(#pc1afc1f438)">
     <use xlink:href="#C0_0_30a58da905" x="336.660732" y="350.58614" style="fill: #808080"/>
    </g>
    <g clip-path="url(#pc1afc1f438)">
     <use xlink:href="#C0_0_30a58da905" x="400.491965" y="337.185997" style="fill: #808080"/>
    </g>
   </g>
  </g>
 </g>
 <defs>
  <clipPath id="pc1afc1f438">
   <rect x="7.2" y="7.2" width="430.8376" height="443.52"/>
  </clipPath>
 </defs>
</svg>
