<?xml version="1.0" encoding="utf-8" standalone="no"?>
<!DOCTYPE svg PUBLIC "-//W3C//DTD SVG 1.1//EN"
  "http://www.w3.org/Graphics/SVG/1.1/DTD/svg11.dtd">
<svg xmlns:xlink="http://www.w3.org/1999/xlink" width="576pt" height="396pt" viewBox="0 0 576 396" xmlns="http://www.w3.org/2000/svg" version="1.1">
 <metadata>
  <rdf:RDF xmlns:dc="http://purl.org/dc/elements/1.1/" xmlns:cc="http://creativecommons.org/ns#" xmlns:rdf="http://www.w3.org/1999/02/22-rdf-syntax-ns#">
   <cc:Work>
    <dc:type rdf:resource="http://purl.org/dc/dcmitype/StillImage"/>
    <dc:date>2023-04-24T15:06:53.494032</dc:date>
    <dc:format>image/svg+xml</dc:format>
    <dc:creator>
     <cc:Agent>
      <dc:title>Matplotlib v3.6.2, https://matplotlib.org/</dc:title>
     </cc:Agent>
    </dc:creator>
   </cc:Work>
  </rdf:RDF>
 </metadata>
 <defs>
  <style type="text/css">*{stroke-linejoin: round; stroke-linecap: butt}</style>
 </defs>
 <g id="figure_1">
  <g id="patch_1">
   <path d="M 0 396 
L 576 396 
L 576 0 
L 0 0 
z
" style="fill: #ffffff"/>
  </g>
  <g id="axes_1">
   <g id="patch_2">
    <path d="M 45.83 355.48 
L 407.74 355.48 
L 407.74 21.046 
L 45.83 21.046 
z
" style="fill: #ffffff"/>
   </g>
   <g id="matplotlib.axis_1">
    <g id="xtick_1">
     <g id="line2d_1"/>
     <g id="text_1">
      <!-- 0 -->
      <g style="fill: #262626" transform="translate(59.499986 369.637812) scale(0.1 -0.1)">
       <defs>
        <path id="ArialMT-30" d="M 266 2259 
Q 266 3072 433 3567 
Q 600 4063 929 4331 
Q 1259 4600 1759 4600 
Q 2128 4600 2406 4451 
Q 2684 4303 2865 4023 
Q 3047 3744 3150 3342 
Q 3253 2941 3253 2259 
Q 3253 1453 3087 958 
Q 2922 463 2592 192 
Q 2263 -78 1759 -78 
Q 1097 -78 719 397 
Q 266 969 266 2259 
z
M 844 2259 
Q 844 1131 1108 757 
Q 1372 384 1759 384 
Q 2147 384 2411 759 
Q 2675 1134 2675 2259 
Q 2675 3391 2411 3762 
Q 2147 4134 1753 4134 
Q 1366 4134 1134 3806 
Q 844 3388 844 2259 
z
" transform="scale(0.015625)"/>
       </defs>
       <use xlink:href="#ArialMT-30"/>
      </g>
     </g>
    </g>
    <g id="xtick_2">
     <g id="line2d_2"/>
     <g id="text_2">
      <!-- 2 -->
      <g style="fill: #262626" transform="translate(132.613117 369.637812) scale(0.1 -0.1)">
       <defs>
        <path id="ArialMT-32" d="M 3222 541 
L 3222 0 
L 194 0 
Q 188 203 259 391 
Q 375 700 629 1000 
Q 884 1300 1366 1694 
Q 2113 2306 2375 2664 
Q 2638 3022 2638 3341 
Q 2638 3675 2398 3904 
Q 2159 4134 1775 4134 
Q 1369 4134 1125 3890 
Q 881 3647 878 3216 
L 300 3275 
Q 359 3922 746 4261 
Q 1134 4600 1788 4600 
Q 2447 4600 2831 4234 
Q 3216 3869 3216 3328 
Q 3216 3053 3103 2787 
Q 2991 2522 2730 2228 
Q 2469 1934 1863 1422 
Q 1356 997 1212 845 
Q 1069 694 975 541 
L 3222 541 
z
" transform="scale(0.015625)"/>
       </defs>
       <use xlink:href="#ArialMT-32"/>
      </g>
     </g>
    </g>
    <g id="xtick_3">
     <g id="line2d_3"/>
     <g id="text_3">
      <!-- 4 -->
      <g style="fill: #262626" transform="translate(205.726248 369.637812) scale(0.1 -0.1)">
       <defs>
        <path id="ArialMT-34" d="M 2069 0 
L 2069 1097 
L 81 1097 
L 81 1613 
L 2172 4581 
L 2631 4581 
L 2631 1613 
L 3250 1613 
L 3250 1097 
L 2631 1097 
L 2631 0 
L 2069 0 
z
M 2069 1613 
L 2069 3678 
L 634 1613 
L 2069 1613 
z
" transform="scale(0.015625)"/>
       </defs>
       <use xlink:href="#ArialMT-34"/>
      </g>
     </g>
    </g>
    <g id="xtick_4">
     <g id="line2d_4"/>
     <g id="text_4">
      <!-- 6 -->
      <g style="fill: #262626" transform="translate(278.83938 369.637812) scale(0.1 -0.1)">
       <defs>
        <path id="ArialMT-36" d="M 3184 3459 
L 2625 3416 
Q 2550 3747 2413 3897 
Q 2184 4138 1850 4138 
Q 1581 4138 1378 3988 
Q 1113 3794 959 3422 
Q 806 3050 800 2363 
Q 1003 2672 1297 2822 
Q 1591 2972 1913 2972 
Q 2475 2972 2870 2558 
Q 3266 2144 3266 1488 
Q 3266 1056 3080 686 
Q 2894 316 2569 119 
Q 2244 -78 1831 -78 
Q 1128 -78 684 439 
Q 241 956 241 2144 
Q 241 3472 731 4075 
Q 1159 4600 1884 4600 
Q 2425 4600 2770 4297 
Q 3116 3994 3184 3459 
z
M 888 1484 
Q 888 1194 1011 928 
Q 1134 663 1356 523 
Q 1578 384 1822 384 
Q 2178 384 2434 671 
Q 2691 959 2691 1453 
Q 2691 1928 2437 2201 
Q 2184 2475 1800 2475 
Q 1419 2475 1153 2201 
Q 888 1928 888 1484 
z
" transform="scale(0.015625)"/>
       </defs>
       <use xlink:href="#ArialMT-36"/>
      </g>
     </g>
    </g>
    <g id="xtick_5">
     <g id="line2d_5"/>
     <g id="text_5">
      <!-- 8 -->
      <g style="fill: #262626" transform="translate(351.952511 369.637812) scale(0.1 -0.1)">
       <defs>
        <path id="ArialMT-38" d="M 1131 2484 
Q 781 2613 612 2850 
Q 444 3088 444 3419 
Q 444 3919 803 4259 
Q 1163 4600 1759 4600 
Q 2359 4600 2725 4251 
Q 3091 3903 3091 3403 
Q 3091 3084 2923 2848 
Q 2756 2613 2416 2484 
Q 2838 2347 3058 2040 
Q 3278 1734 3278 1309 
Q 3278 722 2862 322 
Q 2447 -78 1769 -78 
Q 1091 -78 675 323 
Q 259 725 259 1325 
Q 259 1772 486 2073 
Q 713 2375 1131 2484 
z
M 1019 3438 
Q 1019 3113 1228 2906 
Q 1438 2700 1772 2700 
Q 2097 2700 2305 2904 
Q 2513 3109 2513 3406 
Q 2513 3716 2298 3927 
Q 2084 4138 1766 4138 
Q 1444 4138 1231 3931 
Q 1019 3725 1019 3438 
z
M 838 1322 
Q 838 1081 952 856 
Q 1066 631 1291 507 
Q 1516 384 1775 384 
Q 2178 384 2440 643 
Q 2703 903 2703 1303 
Q 2703 1709 2433 1975 
Q 2163 2241 1756 2241 
Q 1359 2241 1098 1978 
Q 838 1716 838 1322 
z
" transform="scale(0.015625)"/>
       </defs>
       <use xlink:href="#ArialMT-38"/>
      </g>
     </g>
    </g>
    <g id="text_6">
     <!-- Iteration Steps -->
     <g style="fill: #262626" transform="translate(191.322031 383.632969) scale(0.11 -0.11)">
      <defs>
       <path id="ArialMT-49" d="M 597 0 
L 597 4581 
L 1203 4581 
L 1203 0 
L 597 0 
z
" transform="scale(0.015625)"/>
       <path id="ArialMT-74" d="M 1650 503 
L 1731 6 
Q 1494 -44 1306 -44 
Q 1000 -44 831 53 
Q 663 150 594 308 
Q 525 466 525 972 
L 525 2881 
L 113 2881 
L 113 3319 
L 525 3319 
L 525 4141 
L 1084 4478 
L 1084 3319 
L 1650 3319 
L 1650 2881 
L 1084 2881 
L 1084 941 
Q 1084 700 1114 631 
Q 1144 563 1211 522 
Q 1278 481 1403 481 
Q 1497 481 1650 503 
z
" transform="scale(0.015625)"/>
       <path id="ArialMT-65" d="M 2694 1069 
L 3275 997 
Q 3138 488 2766 206 
Q 2394 -75 1816 -75 
Q 1088 -75 661 373 
Q 234 822 234 1631 
Q 234 2469 665 2931 
Q 1097 3394 1784 3394 
Q 2450 3394 2872 2941 
Q 3294 2488 3294 1666 
Q 3294 1616 3291 1516 
L 816 1516 
Q 847 969 1125 678 
Q 1403 388 1819 388 
Q 2128 388 2347 550 
Q 2566 713 2694 1069 
z
M 847 1978 
L 2700 1978 
Q 2663 2397 2488 2606 
Q 2219 2931 1791 2931 
Q 1403 2931 1139 2672 
Q 875 2413 847 1978 
z
" transform="scale(0.015625)"/>
       <path id="ArialMT-72" d="M 416 0 
L 416 3319 
L 922 3319 
L 922 2816 
Q 1116 3169 1280 3281 
Q 1444 3394 1641 3394 
Q 1925 3394 2219 3213 
L 2025 2691 
Q 1819 2813 1613 2813 
Q 1428 2813 1281 2702 
Q 1134 2591 1072 2394 
Q 978 2094 978 1738 
L 978 0 
L 416 0 
z
" transform="scale(0.015625)"/>
       <path id="ArialMT-61" d="M 2588 409 
Q 2275 144 1986 34 
Q 1697 -75 1366 -75 
Q 819 -75 525 192 
Q 231 459 231 875 
Q 231 1119 342 1320 
Q 453 1522 633 1644 
Q 813 1766 1038 1828 
Q 1203 1872 1538 1913 
Q 2219 1994 2541 2106 
Q 2544 2222 2544 2253 
Q 2544 2597 2384 2738 
Q 2169 2928 1744 2928 
Q 1347 2928 1158 2789 
Q 969 2650 878 2297 
L 328 2372 
Q 403 2725 575 2942 
Q 747 3159 1072 3276 
Q 1397 3394 1825 3394 
Q 2250 3394 2515 3294 
Q 2781 3194 2906 3042 
Q 3031 2891 3081 2659 
Q 3109 2516 3109 2141 
L 3109 1391 
Q 3109 606 3145 398 
Q 3181 191 3288 0 
L 2700 0 
Q 2613 175 2588 409 
z
M 2541 1666 
Q 2234 1541 1622 1453 
Q 1275 1403 1131 1340 
Q 988 1278 909 1158 
Q 831 1038 831 891 
Q 831 666 1001 516 
Q 1172 366 1500 366 
Q 1825 366 2078 508 
Q 2331 650 2450 897 
Q 2541 1088 2541 1459 
L 2541 1666 
z
" transform="scale(0.015625)"/>
       <path id="ArialMT-69" d="M 425 3934 
L 425 4581 
L 988 4581 
L 988 3934 
L 425 3934 
z
M 425 0 
L 425 3319 
L 988 3319 
L 988 0 
L 425 0 
z
" transform="scale(0.015625)"/>
       <path id="ArialMT-6f" d="M 213 1659 
Q 213 2581 725 3025 
Q 1153 3394 1769 3394 
Q 2453 3394 2887 2945 
Q 3322 2497 3322 1706 
Q 3322 1066 3130 698 
Q 2938 331 2570 128 
Q 2203 -75 1769 -75 
Q 1072 -75 642 372 
Q 213 819 213 1659 
z
M 791 1659 
Q 791 1022 1069 705 
Q 1347 388 1769 388 
Q 2188 388 2466 706 
Q 2744 1025 2744 1678 
Q 2744 2294 2464 2611 
Q 2184 2928 1769 2928 
Q 1347 2928 1069 2612 
Q 791 2297 791 1659 
z
" transform="scale(0.015625)"/>
       <path id="ArialMT-6e" d="M 422 0 
L 422 3319 
L 928 3319 
L 928 2847 
Q 1294 3394 1984 3394 
Q 2284 3394 2536 3286 
Q 2788 3178 2913 3003 
Q 3038 2828 3088 2588 
Q 3119 2431 3119 2041 
L 3119 0 
L 2556 0 
L 2556 2019 
Q 2556 2363 2490 2533 
Q 2425 2703 2258 2804 
Q 2091 2906 1866 2906 
Q 1506 2906 1245 2678 
Q 984 2450 984 1813 
L 984 0 
L 422 0 
z
" transform="scale(0.015625)"/>
       <path id="ArialMT-20" transform="scale(0.015625)"/>
       <path id="ArialMT-53" d="M 288 1472 
L 859 1522 
Q 900 1178 1048 958 
Q 1197 738 1509 602 
Q 1822 466 2213 466 
Q 2559 466 2825 569 
Q 3091 672 3220 851 
Q 3350 1031 3350 1244 
Q 3350 1459 3225 1620 
Q 3100 1781 2813 1891 
Q 2628 1963 1997 2114 
Q 1366 2266 1113 2400 
Q 784 2572 623 2826 
Q 463 3081 463 3397 
Q 463 3744 659 4045 
Q 856 4347 1234 4503 
Q 1613 4659 2075 4659 
Q 2584 4659 2973 4495 
Q 3363 4331 3572 4012 
Q 3781 3694 3797 3291 
L 3216 3247 
Q 3169 3681 2898 3903 
Q 2628 4125 2100 4125 
Q 1550 4125 1298 3923 
Q 1047 3722 1047 3438 
Q 1047 3191 1225 3031 
Q 1400 2872 2139 2705 
Q 2878 2538 3153 2413 
Q 3553 2228 3743 1945 
Q 3934 1663 3934 1294 
Q 3934 928 3725 604 
Q 3516 281 3123 101 
Q 2731 -78 2241 -78 
Q 1619 -78 1198 103 
Q 778 284 539 648 
Q 300 1013 288 1472 
z
" transform="scale(0.015625)"/>
       <path id="ArialMT-70" d="M 422 -1272 
L 422 3319 
L 934 3319 
L 934 2888 
Q 1116 3141 1344 3267 
Q 1572 3394 1897 3394 
Q 2322 3394 2647 3175 
Q 2972 2956 3137 2557 
Q 3303 2159 3303 1684 
Q 3303 1175 3120 767 
Q 2938 359 2589 142 
Q 2241 -75 1856 -75 
Q 1575 -75 1351 44 
Q 1128 163 984 344 
L 984 -1272 
L 422 -1272 
z
M 931 1641 
Q 931 1000 1190 694 
Q 1450 388 1819 388 
Q 2194 388 2461 705 
Q 2728 1022 2728 1688 
Q 2728 2322 2467 2637 
Q 2206 2953 1844 2953 
Q 1484 2953 1207 2617 
Q 931 2281 931 1641 
z
" transform="scale(0.015625)"/>
       <path id="ArialMT-73" d="M 197 991 
L 753 1078 
Q 800 744 1014 566 
Q 1228 388 1613 388 
Q 2000 388 2187 545 
Q 2375 703 2375 916 
Q 2375 1106 2209 1216 
Q 2094 1291 1634 1406 
Q 1016 1563 777 1677 
Q 538 1791 414 1992 
Q 291 2194 291 2438 
Q 291 2659 392 2848 
Q 494 3038 669 3163 
Q 800 3259 1026 3326 
Q 1253 3394 1513 3394 
Q 1903 3394 2198 3281 
Q 2494 3169 2634 2976 
Q 2775 2784 2828 2463 
L 2278 2388 
Q 2241 2644 2061 2787 
Q 1881 2931 1553 2931 
Q 1166 2931 1000 2803 
Q 834 2675 834 2503 
Q 834 2394 903 2306 
Q 972 2216 1119 2156 
Q 1203 2125 1616 2013 
Q 2213 1853 2448 1751 
Q 2684 1650 2818 1456 
Q 2953 1263 2953 975 
Q 2953 694 2789 445 
Q 2625 197 2315 61 
Q 2006 -75 1616 -75 
Q 969 -75 630 194 
Q 291 463 197 991 
z
" transform="scale(0.015625)"/>
      </defs>
      <use xlink:href="#ArialMT-49"/>
      <use xlink:href="#ArialMT-74" x="27.783203"/>
      <use xlink:href="#ArialMT-65" x="55.566406"/>
      <use xlink:href="#ArialMT-72" x="111.181641"/>
      <use xlink:href="#ArialMT-61" x="144.482422"/>
      <use xlink:href="#ArialMT-74" x="200.097656"/>
      <use xlink:href="#ArialMT-69" x="227.880859"/>
      <use xlink:href="#ArialMT-6f" x="250.097656"/>
      <use xlink:href="#ArialMT-6e" x="305.712891"/>
      <use xlink:href="#ArialMT-20" x="361.328125"/>
      <use xlink:href="#ArialMT-53" x="389.111328"/>
      <use xlink:href="#ArialMT-74" x="455.810547"/>
      <use xlink:href="#ArialMT-65" x="483.59375"/>
      <use xlink:href="#ArialMT-70" x="539.208984"/>
      <use xlink:href="#ArialMT-73" x="594.824219"/>
     </g>
    </g>
   </g>
   <g id="matplotlib.axis_2">
    <g id="ytick_1">
     <g id="line2d_6"/>
     <g id="text_7">
      <!-- 0.0 -->
      <g style="fill: #262626" transform="translate(24.93 343.857361) scale(0.1 -0.1)">
       <defs>
        <path id="ArialMT-2e" d="M 581 0 
L 581 641 
L 1222 641 
L 1222 0 
L 581 0 
z
" transform="scale(0.015625)"/>
       </defs>
       <use xlink:href="#ArialMT-30"/>
       <use xlink:href="#ArialMT-2e" x="55.615234"/>
       <use xlink:href="#ArialMT-30" x="83.398438"/>
      </g>
     </g>
    </g>
    <g id="ytick_2">
     <g id="line2d_7"/>
     <g id="text_8">
      <!-- 0.2 -->
      <g style="fill: #262626" transform="translate(24.93 281.619249) scale(0.1 -0.1)">
       <use xlink:href="#ArialMT-30"/>
       <use xlink:href="#ArialMT-2e" x="55.615234"/>
       <use xlink:href="#ArialMT-32" x="83.398438"/>
      </g>
     </g>
    </g>
    <g id="ytick_3">
     <g id="line2d_8"/>
     <g id="text_9">
      <!-- 0.4 -->
      <g style="fill: #262626" transform="translate(24.93 219.381137) scale(0.1 -0.1)">
       <use xlink:href="#ArialMT-30"/>
       <use xlink:href="#ArialMT-2e" x="55.615234"/>
       <use xlink:href="#ArialMT-34" x="83.398438"/>
      </g>
     </g>
    </g>
    <g id="ytick_4">
     <g id="line2d_9"/>
     <g id="text_10">
      <!-- 0.6 -->
      <g style="fill: #262626" transform="translate(24.93 157.143026) scale(0.1 -0.1)">
       <use xlink:href="#ArialMT-30"/>
       <use xlink:href="#ArialMT-2e" x="55.615234"/>
       <use xlink:href="#ArialMT-36" x="83.398438"/>
      </g>
     </g>
    </g>
    <g id="ytick_5">
     <g id="line2d_10"/>
     <g id="text_11">
      <!-- 0.8 -->
      <g style="fill: #262626" transform="translate(24.93 94.904914) scale(0.1 -0.1)">
       <use xlink:href="#ArialMT-30"/>
       <use xlink:href="#ArialMT-2e" x="55.615234"/>
       <use xlink:href="#ArialMT-38" x="83.398438"/>
      </g>
     </g>
    </g>
    <g id="ytick_6">
     <g id="line2d_11"/>
     <g id="text_12">
      <!-- 1.0 -->
      <g style="fill: #262626" transform="translate(24.93 32.666802) scale(0.1 -0.1)">
       <defs>
        <path id="ArialMT-31" d="M 2384 0 
L 1822 0 
L 1822 3584 
Q 1619 3391 1289 3197 
Q 959 3003 697 2906 
L 697 3450 
Q 1169 3672 1522 3987 
Q 1875 4303 2022 4600 
L 2384 4600 
L 2384 0 
z
" transform="scale(0.015625)"/>
       </defs>
       <use xlink:href="#ArialMT-31"/>
       <use xlink:href="#ArialMT-2e" x="55.615234"/>
       <use xlink:href="#ArialMT-30" x="83.398438"/>
      </g>
     </g>
    </g>
    <g id="text_13">
     <!-- Concepts value -->
     <g style="fill: #262626" transform="translate(18.74375 226.172609) rotate(-90) scale(0.11 -0.11)">
      <defs>
       <path id="ArialMT-43" d="M 3763 1606 
L 4369 1453 
Q 4178 706 3683 314 
Q 3188 -78 2472 -78 
Q 1731 -78 1267 223 
Q 803 525 561 1097 
Q 319 1669 319 2325 
Q 319 3041 592 3573 
Q 866 4106 1370 4382 
Q 1875 4659 2481 4659 
Q 3169 4659 3637 4309 
Q 4106 3959 4291 3325 
L 3694 3184 
Q 3534 3684 3231 3912 
Q 2928 4141 2469 4141 
Q 1941 4141 1586 3887 
Q 1231 3634 1087 3207 
Q 944 2781 944 2328 
Q 944 1744 1114 1308 
Q 1284 872 1643 656 
Q 2003 441 2422 441 
Q 2931 441 3284 734 
Q 3638 1028 3763 1606 
z
" transform="scale(0.015625)"/>
       <path id="ArialMT-63" d="M 2588 1216 
L 3141 1144 
Q 3050 572 2676 248 
Q 2303 -75 1759 -75 
Q 1078 -75 664 370 
Q 250 816 250 1647 
Q 250 2184 428 2587 
Q 606 2991 970 3192 
Q 1334 3394 1763 3394 
Q 2303 3394 2647 3120 
Q 2991 2847 3088 2344 
L 2541 2259 
Q 2463 2594 2264 2762 
Q 2066 2931 1784 2931 
Q 1359 2931 1093 2626 
Q 828 2322 828 1663 
Q 828 994 1084 691 
Q 1341 388 1753 388 
Q 2084 388 2306 591 
Q 2528 794 2588 1216 
z
" transform="scale(0.015625)"/>
       <path id="ArialMT-76" d="M 1344 0 
L 81 3319 
L 675 3319 
L 1388 1331 
Q 1503 1009 1600 663 
Q 1675 925 1809 1294 
L 2547 3319 
L 3125 3319 
L 1869 0 
L 1344 0 
z
" transform="scale(0.015625)"/>
       <path id="ArialMT-6c" d="M 409 0 
L 409 4581 
L 972 4581 
L 972 0 
L 409 0 
z
" transform="scale(0.015625)"/>
       <path id="ArialMT-75" d="M 2597 0 
L 2597 488 
Q 2209 -75 1544 -75 
Q 1250 -75 995 37 
Q 741 150 617 320 
Q 494 491 444 738 
Q 409 903 409 1263 
L 409 3319 
L 972 3319 
L 972 1478 
Q 972 1038 1006 884 
Q 1059 663 1231 536 
Q 1403 409 1656 409 
Q 1909 409 2131 539 
Q 2353 669 2445 892 
Q 2538 1116 2538 1541 
L 2538 3319 
L 3100 3319 
L 3100 0 
L 2597 0 
z
" transform="scale(0.015625)"/>
      </defs>
      <use xlink:href="#ArialMT-43"/>
      <use xlink:href="#ArialMT-6f" x="72.216797"/>
      <use xlink:href="#ArialMT-6e" x="127.832031"/>
      <use xlink:href="#ArialMT-63" x="183.447266"/>
      <use xlink:href="#ArialMT-65" x="233.447266"/>
      <use xlink:href="#ArialMT-70" x="289.0625"/>
      <use xlink:href="#ArialMT-74" x="344.677734"/>
      <use xlink:href="#ArialMT-73" x="372.460938"/>
      <use xlink:href="#ArialMT-20" x="422.460938"/>
      <use xlink:href="#ArialMT-76" x="450.244141"/>
      <use xlink:href="#ArialMT-61" x="500.244141"/>
      <use xlink:href="#ArialMT-6c" x="555.859375"/>
      <use xlink:href="#ArialMT-75" x="578.076172"/>
      <use xlink:href="#ArialMT-65" x="633.691406"/>
     </g>
    </g>
   </g>
   <g id="line2d_12">
    <path d="M 62.280455 340.278455 
L 98.83702 184.683175 
L 135.393586 123.300505 
L 171.950152 101.389116 
L 208.506717 94.803961 
L 245.063283 93.033912 
L 281.619848 92.580198 
L 318.176414 92.461928 
L 354.73298 92.426849 
L 391.289545 92.41434 
" clip-path="url(#p00d911fa01)" style="fill: none; stroke: #4c72b0; stroke-width: 1.75; stroke-linecap: round"/>
    <defs>
     <path id="m4bc9ead3b0" d="M 0 1.75 
C 0.464105 1.75 0.909265 1.565609 1.237437 1.237437 
C 1.565609 0.909265 1.75 0.464105 1.75 0 
C 1.75 -0.464105 1.565609 -0.909265 1.237437 -1.237437 
C 0.909265 -1.565609 0.464105 -1.75 0 -1.75 
C -0.464105 -1.75 -0.909265 -1.565609 -1.237437 -1.237437 
C -1.565609 -0.909265 -1.75 -0.464105 -1.75 0 
C -1.75 0.464105 -1.565609 0.909265 -1.237437 1.237437 
C -0.909265 1.565609 -0.464105 1.75 0 1.75 
z
"/>
    </defs>
    <g clip-path="url(#p00d911fa01)">
     <use xlink:href="#m4bc9ead3b0" x="62.280455" y="340.278455" style="fill: #4c72b0"/>
     <use xlink:href="#m4bc9ead3b0" x="98.83702" y="184.683175" style="fill: #4c72b0"/>
     <use xlink:href="#m4bc9ead3b0" x="135.393586" y="123.300505" style="fill: #4c72b0"/>
     <use xlink:href="#m4bc9ead3b0" x="171.950152" y="101.389116" style="fill: #4c72b0"/>
     <use xlink:href="#m4bc9ead3b0" x="208.506717" y="94.803961" style="fill: #4c72b0"/>
     <use xlink:href="#m4bc9ead3b0" x="245.063283" y="93.033912" style="fill: #4c72b0"/>
     <use xlink:href="#m4bc9ead3b0" x="281.619848" y="92.580198" style="fill: #4c72b0"/>
     <use xlink:href="#m4bc9ead3b0" x="318.176414" y="92.461928" style="fill: #4c72b0"/>
     <use xlink:href="#m4bc9ead3b0" x="354.73298" y="92.426849" style="fill: #4c72b0"/>
     <use xlink:href="#m4bc9ead3b0" x="391.289545" y="92.41434" style="fill: #4c72b0"/>
    </g>
   </g>
   <g id="line2d_13">
    <path d="M 62.280455 340.278455 
L 98.83702 184.683175 
L 135.393586 216.037543 
L 171.950152 256.013688 
L 208.506717 271.901411 
L 245.063283 275.923496 
L 281.619848 276.78996 
L 318.176414 276.965441 
L 354.73298 276.999997 
L 391.289545 277.006692 
" clip-path="url(#p00d911fa01)" style="fill: none; stroke: #55a868; stroke-width: 1.75; stroke-linecap: round"/>
    <defs>
     <path id="m1af4975c49" d="M 0 3.5 
C 0.928211 3.5 1.81853 3.131218 2.474874 2.474874 
C 3.131218 1.81853 3.5 0.928211 3.5 0 
C 3.5 -0.928211 3.131218 -1.81853 2.474874 -2.474874 
C 1.81853 -3.131218 0.928211 -3.5 0 -3.5 
C -0.928211 -3.5 -1.81853 -3.131218 -2.474874 -2.474874 
C -3.131218 -1.81853 -3.5 -0.928211 -3.5 0 
C -3.5 0.928211 -3.131218 1.81853 -2.474874 2.474874 
C -1.81853 3.131218 -0.928211 3.5 0 3.5 
z
"/>
    </defs>
    <g clip-path="url(#p00d911fa01)">
     <use xlink:href="#m1af4975c49" x="62.280455" y="340.278455" style="fill: #55a868"/>
     <use xlink:href="#m1af4975c49" x="98.83702" y="184.683175" style="fill: #55a868"/>
     <use xlink:href="#m1af4975c49" x="135.393586" y="216.037543" style="fill: #55a868"/>
     <use xlink:href="#m1af4975c49" x="171.950152" y="256.013688" style="fill: #55a868"/>
     <use xlink:href="#m1af4975c49" x="208.506717" y="271.901411" style="fill: #55a868"/>
     <use xlink:href="#m1af4975c49" x="245.063283" y="275.923496" style="fill: #55a868"/>
     <use xlink:href="#m1af4975c49" x="281.619848" y="276.78996" style="fill: #55a868"/>
     <use xlink:href="#m1af4975c49" x="318.176414" y="276.965441" style="fill: #55a868"/>
     <use xlink:href="#m1af4975c49" x="354.73298" y="276.999997" style="fill: #55a868"/>
     <use xlink:href="#m1af4975c49" x="391.289545" y="277.006692" style="fill: #55a868"/>
    </g>
   </g>
   <g id="line2d_14">
    <path d="M 62.280455 340.278455 
L 98.83702 184.683175 
L 135.393586 165.334435 
L 171.950152 170.081454 
L 208.506717 174.131517 
L 245.063283 175.873821 
L 281.619848 176.483279 
L 318.176414 176.672386 
L 354.73298 176.726517 
L 391.289545 176.741158 
" clip-path="url(#p00d911fa01)" style="fill: none; stroke: #c44e52; stroke-width: 1.75; stroke-linecap: round"/>
    <defs>
     <path id="mba3fac34de" d="M -0 3.5 
L 3.5 -3.5 
L -3.5 -3.5 
z
"/>
    </defs>
    <g clip-path="url(#p00d911fa01)">
     <use xlink:href="#mba3fac34de" x="62.280455" y="340.278455" style="fill: #c44e52"/>
     <use xlink:href="#mba3fac34de" x="98.83702" y="184.683175" style="fill: #c44e52"/>
     <use xlink:href="#mba3fac34de" x="135.393586" y="165.334435" style="fill: #c44e52"/>
     <use xlink:href="#mba3fac34de" x="171.950152" y="170.081454" style="fill: #c44e52"/>
     <use xlink:href="#mba3fac34de" x="208.506717" y="174.131517" style="fill: #c44e52"/>
     <use xlink:href="#mba3fac34de" x="245.063283" y="175.873821" style="fill: #c44e52"/>
     <use xlink:href="#mba3fac34de" x="281.619848" y="176.483279" style="fill: #c44e52"/>
     <use xlink:href="#mba3fac34de" x="318.176414" y="176.672386" style="fill: #c44e52"/>
     <use xlink:href="#mba3fac34de" x="354.73298" y="176.726517" style="fill: #c44e52"/>
     <use xlink:href="#mba3fac34de" x="391.289545" y="176.741158" style="fill: #c44e52"/>
    </g>
   </g>
   <g id="line2d_15">
    <path d="M 62.280455 340.278455 
L 98.83702 184.683175 
L 135.393586 146.574988 
L 171.950152 137.762585 
L 208.506717 135.768473 
L 245.063283 135.319667 
L 281.619848 135.218782 
L 318.176414 135.196111 
L 354.73298 135.191017 
L 391.289545 135.189872 
" clip-path="url(#p00d911fa01)" style="fill: none; stroke: #8172b2; stroke-width: 1.75; stroke-linecap: round"/>
    <defs>
     <path id="mf06cb36fe6" d="M 0 -3.5 
L -3.5 3.5 
L 3.5 3.5 
z
"/>
    </defs>
    <g clip-path="url(#p00d911fa01)">
     <use xlink:href="#mf06cb36fe6" x="62.280455" y="340.278455" style="fill: #8172b2"/>
     <use xlink:href="#mf06cb36fe6" x="98.83702" y="184.683175" style="fill: #8172b2"/>
     <use xlink:href="#mf06cb36fe6" x="135.393586" y="146.574988" style="fill: #8172b2"/>
     <use xlink:href="#mf06cb36fe6" x="171.950152" y="137.762585" style="fill: #8172b2"/>
     <use xlink:href="#mf06cb36fe6" x="208.506717" y="135.768473" style="fill: #8172b2"/>
     <use xlink:href="#mf06cb36fe6" x="245.063283" y="135.319667" style="fill: #8172b2"/>
     <use xlink:href="#mf06cb36fe6" x="281.619848" y="135.218782" style="fill: #8172b2"/>
     <use xlink:href="#mf06cb36fe6" x="318.176414" y="135.196111" style="fill: #8172b2"/>
     <use xlink:href="#mf06cb36fe6" x="354.73298" y="135.191017" style="fill: #8172b2"/>
     <use xlink:href="#mf06cb36fe6" x="391.289545" y="135.189872" style="fill: #8172b2"/>
    </g>
   </g>
   <g id="line2d_16">
    <path d="M 62.280455 340.278455 
L 98.83702 184.683175 
L 135.393586 179.170394 
L 171.950152 179.491984 
L 208.506717 173.632295 
L 245.063283 168.298328 
L 281.619848 165.467344 
L 318.176414 164.296528 
L 354.73298 163.876617 
L 391.289545 163.739122 
" clip-path="url(#p00d911fa01)" style="fill: none; stroke: #ccb974; stroke-width: 1.75; stroke-linecap: round"/>
    <defs>
     <path id="mbe606ca51b" d="M -3.5 -0 
L 3.5 3.5 
L 3.5 -3.5 
z
"/>
    </defs>
    <g clip-path="url(#p00d911fa01)">
     <use xlink:href="#mbe606ca51b" x="62.280455" y="340.278455" style="fill: #ccb974"/>
     <use xlink:href="#mbe606ca51b" x="98.83702" y="184.683175" style="fill: #ccb974"/>
     <use xlink:href="#mbe606ca51b" x="135.393586" y="179.170394" style="fill: #ccb974"/>
     <use xlink:href="#mbe606ca51b" x="171.950152" y="179.491984" style="fill: #ccb974"/>
     <use xlink:href="#mbe606ca51b" x="208.506717" y="173.632295" style="fill: #ccb974"/>
     <use xlink:href="#mbe606ca51b" x="245.063283" y="168.298328" style="fill: #ccb974"/>
     <use xlink:href="#mbe606ca51b" x="281.619848" y="165.467344" style="fill: #ccb974"/>
     <use xlink:href="#mbe606ca51b" x="318.176414" y="164.296528" style="fill: #ccb974"/>
     <use xlink:href="#mbe606ca51b" x="354.73298" y="163.876617" style="fill: #ccb974"/>
     <use xlink:href="#mbe606ca51b" x="391.289545" y="163.739122" style="fill: #ccb974"/>
    </g>
   </g>
   <g id="line2d_17">
    <path d="M 62.280455 340.278455 
L 98.83702 184.683175 
L 135.393586 146.574988 
L 171.950152 137.762585 
L 208.506717 135.768473 
L 245.063283 135.319667 
L 281.619848 135.218782 
L 318.176414 135.196111 
L 354.73298 135.191017 
L 391.289545 135.189872 
" clip-path="url(#p00d911fa01)" style="fill: none; stroke: #64b5cd; stroke-width: 1.75; stroke-linecap: round"/>
    <defs>
     <path id="mb457422ffc" d="M 3.5 0 
L -3.5 -3.5 
L -3.5 3.5 
z
"/>
    </defs>
    <g clip-path="url(#p00d911fa01)">
     <use xlink:href="#mb457422ffc" x="62.280455" y="340.278455" style="fill: #64b5cd"/>
     <use xlink:href="#mb457422ffc" x="98.83702" y="184.683175" style="fill: #64b5cd"/>
     <use xlink:href="#mb457422ffc" x="135.393586" y="146.574988" style="fill: #64b5cd"/>
     <use xlink:href="#mb457422ffc" x="171.950152" y="137.762585" style="fill: #64b5cd"/>
     <use xlink:href="#mb457422ffc" x="208.506717" y="135.768473" style="fill: #64b5cd"/>
     <use xlink:href="#mb457422ffc" x="245.063283" y="135.319667" style="fill: #64b5cd"/>
     <use xlink:href="#mb457422ffc" x="281.619848" y="135.218782" style="fill: #64b5cd"/>
     <use xlink:href="#mb457422ffc" x="318.176414" y="135.196111" style="fill: #64b5cd"/>
     <use xlink:href="#mb457422ffc" x="354.73298" y="135.191017" style="fill: #64b5cd"/>
     <use xlink:href="#mb457422ffc" x="391.289545" y="135.189872" style="fill: #64b5cd"/>
    </g>
   </g>
   <g id="line2d_18">
    <path d="M 62.280455 340.278455 
L 98.83702 184.683175 
L 135.393586 128.924456 
L 171.950152 107.516354 
L 208.506717 100.749283 
L 245.063283 99.108097 
L 281.619848 98.758231 
L 318.176414 98.688325 
L 354.73298 98.674998 
L 391.289545 98.672584 
" clip-path="url(#p00d911fa01)" style="fill: none; stroke: #4c72b0; stroke-width: 1.75; stroke-linecap: round"/>
    <defs>
     <path id="mf06b29672d" d="M -3.5 3.5 
L 3.5 3.5 
L 3.5 -3.5 
L -3.5 -3.5 
z
"/>
    </defs>
    <g clip-path="url(#p00d911fa01)">
     <use xlink:href="#mf06b29672d" x="62.280455" y="340.278455" style="fill: #4c72b0"/>
     <use xlink:href="#mf06b29672d" x="98.83702" y="184.683175" style="fill: #4c72b0"/>
     <use xlink:href="#mf06b29672d" x="135.393586" y="128.924456" style="fill: #4c72b0"/>
     <use xlink:href="#mf06b29672d" x="171.950152" y="107.516354" style="fill: #4c72b0"/>
     <use xlink:href="#mf06b29672d" x="208.506717" y="100.749283" style="fill: #4c72b0"/>
     <use xlink:href="#mf06b29672d" x="245.063283" y="99.108097" style="fill: #4c72b0"/>
     <use xlink:href="#mf06b29672d" x="281.619848" y="98.758231" style="fill: #4c72b0"/>
     <use xlink:href="#mf06b29672d" x="318.176414" y="98.688325" style="fill: #4c72b0"/>
     <use xlink:href="#mf06b29672d" x="354.73298" y="98.674998" style="fill: #4c72b0"/>
     <use xlink:href="#mf06b29672d" x="391.289545" y="98.672584" style="fill: #4c72b0"/>
    </g>
   </g>
   <g id="line2d_19">
    <path d="M 62.280455 340.278455 
L 98.83702 184.683175 
L 135.393586 85.636353 
L 171.950152 53.833753 
L 208.506717 48.286739 
L 245.063283 47.430071 
L 281.619848 47.289707 
L 318.176414 47.264641 
L 354.73298 47.259818 
L 391.289545 47.258817 
" clip-path="url(#p00d911fa01)" style="fill: none; stroke: #55a868; stroke-width: 1.75; stroke-linecap: round"/>
    <defs>
     <path id="m684675e5b3" d="M -1.166667 3.5 
L 1.166667 3.5 
L 1.166667 1.166667 
L 3.5 1.166667 
L 3.5 -1.166667 
L 1.166667 -1.166667 
L 1.166667 -3.5 
L -1.166667 -3.5 
L -1.166667 -1.166667 
L -3.5 -1.166667 
L -3.5 1.166667 
L -1.166667 1.166667 
z
"/>
    </defs>
    <g clip-path="url(#p00d911fa01)">
     <use xlink:href="#m684675e5b3" x="62.280455" y="340.278455" style="fill: #55a868"/>
     <use xlink:href="#m684675e5b3" x="98.83702" y="184.683175" style="fill: #55a868"/>
     <use xlink:href="#m684675e5b3" x="135.393586" y="85.636353" style="fill: #55a868"/>
     <use xlink:href="#m684675e5b3" x="171.950152" y="53.833753" style="fill: #55a868"/>
     <use xlink:href="#m684675e5b3" x="208.506717" y="48.286739" style="fill: #55a868"/>
     <use xlink:href="#m684675e5b3" x="245.063283" y="47.430071" style="fill: #55a868"/>
     <use xlink:href="#m684675e5b3" x="281.619848" y="47.289707" style="fill: #55a868"/>
     <use xlink:href="#m684675e5b3" x="318.176414" y="47.264641" style="fill: #55a868"/>
     <use xlink:href="#m684675e5b3" x="354.73298" y="47.259818" style="fill: #55a868"/>
     <use xlink:href="#m684675e5b3" x="391.289545" y="47.258817" style="fill: #55a868"/>
    </g>
   </g>
   <g id="line2d_20">
    <path d="M 62.280455 340.278455 
L 98.83702 184.683175 
L 135.393586 108.493532 
L 171.950152 84.156884 
L 208.506717 77.952525 
L 245.063283 76.432159 
L 281.619848 76.020716 
L 318.176414 75.873997 
L 354.73298 75.811037 
L 391.289545 75.784027 
" clip-path="url(#p00d911fa01)" style="fill: none; stroke: #c44e52; stroke-width: 1.75; stroke-linecap: round"/>
    <defs>
     <path id="me2587d9510" d="M 0 -3.5 
L -0.785799 -1.081559 
L -3.328698 -1.081559 
L -1.271449 0.413119 
L -2.057248 2.831559 
L -0 1.336881 
L 2.057248 2.831559 
L 1.271449 0.413119 
L 3.328698 -1.081559 
L 0.785799 -1.081559 
z
"/>
    </defs>
    <g clip-path="url(#p00d911fa01)">
     <use xlink:href="#me2587d9510" x="62.280455" y="340.278455" style="fill: #c44e52"/>
     <use xlink:href="#me2587d9510" x="98.83702" y="184.683175" style="fill: #c44e52"/>
     <use xlink:href="#me2587d9510" x="135.393586" y="108.493532" style="fill: #c44e52"/>
     <use xlink:href="#me2587d9510" x="171.950152" y="84.156884" style="fill: #c44e52"/>
     <use xlink:href="#me2587d9510" x="208.506717" y="77.952525" style="fill: #c44e52"/>
     <use xlink:href="#me2587d9510" x="245.063283" y="76.432159" style="fill: #c44e52"/>
     <use xlink:href="#me2587d9510" x="281.619848" y="76.020716" style="fill: #c44e52"/>
     <use xlink:href="#me2587d9510" x="318.176414" y="75.873997" style="fill: #c44e52"/>
     <use xlink:href="#me2587d9510" x="354.73298" y="75.811037" style="fill: #c44e52"/>
     <use xlink:href="#me2587d9510" x="391.289545" y="75.784027" style="fill: #c44e52"/>
    </g>
   </g>
   <g id="line2d_21">
    <path d="M 62.280455 340.278455 
L 98.83702 184.683175 
L 135.393586 128.924456 
L 171.950152 110.887054 
L 208.506717 104.981712 
L 245.063283 103.141629 
L 281.619848 102.620126 
L 318.176414 102.481348 
L 354.73298 102.445794 
L 391.289545 102.436939 
" clip-path="url(#p00d911fa01)" style="fill: none; stroke: #8172b2; stroke-width: 1.75; stroke-linecap: round"/>
    <defs>
     <path id="m1557c922e1" d="M -1.75 -3.031089 
L -3.5 -0 
L -1.75 3.031089 
L 1.75 3.031089 
L 3.5 0 
L 1.75 -3.031089 
z
"/>
    </defs>
    <g clip-path="url(#p00d911fa01)">
     <use xlink:href="#m1557c922e1" x="62.280455" y="340.278455" style="fill: #8172b2"/>
     <use xlink:href="#m1557c922e1" x="98.83702" y="184.683175" style="fill: #8172b2"/>
     <use xlink:href="#m1557c922e1" x="135.393586" y="128.924456" style="fill: #8172b2"/>
     <use xlink:href="#m1557c922e1" x="171.950152" y="110.887054" style="fill: #8172b2"/>
     <use xlink:href="#m1557c922e1" x="208.506717" y="104.981712" style="fill: #8172b2"/>
     <use xlink:href="#m1557c922e1" x="245.063283" y="103.141629" style="fill: #8172b2"/>
     <use xlink:href="#m1557c922e1" x="281.619848" y="102.620126" style="fill: #8172b2"/>
     <use xlink:href="#m1557c922e1" x="318.176414" y="102.481348" style="fill: #8172b2"/>
     <use xlink:href="#m1557c922e1" x="354.73298" y="102.445794" style="fill: #8172b2"/>
     <use xlink:href="#m1557c922e1" x="391.289545" y="102.436939" style="fill: #8172b2"/>
    </g>
   </g>
   <g id="line2d_22">
    <path d="M 62.280455 340.278455 
L 98.83702 184.683175 
L 135.393586 119.438369 
L 171.950152 105.79707 
L 208.506717 103.33759 
L 245.063283 102.060125 
L 281.619848 101.081409 
L 318.176414 100.512509 
L 354.73298 100.249199 
L 391.289545 100.144485 
" clip-path="url(#p00d911fa01)" style="fill: none; stroke: #ccb974; stroke-width: 1.75; stroke-linecap: round"/>
    <defs>
     <path id="m954a807a74" d="M 0 1.75 
C 0.464105 1.75 0.909265 1.565609 1.237437 1.237437 
C 1.565609 0.909265 1.75 0.464105 1.75 0 
C 1.75 -0.464105 1.565609 -0.909265 1.237437 -1.237437 
C 0.909265 -1.565609 0.464105 -1.75 0 -1.75 
C -0.464105 -1.75 -0.909265 -1.565609 -1.237437 -1.237437 
C -1.565609 -0.909265 -1.75 -0.464105 -1.75 0 
C -1.75 0.464105 -1.565609 0.909265 -1.237437 1.237437 
C -0.909265 1.565609 -0.464105 1.75 0 1.75 
z
"/>
    </defs>
    <g clip-path="url(#p00d911fa01)">
     <use xlink:href="#m954a807a74" x="62.280455" y="340.278455" style="fill: #ccb974"/>
     <use xlink:href="#m954a807a74" x="98.83702" y="184.683175" style="fill: #ccb974"/>
     <use xlink:href="#m954a807a74" x="135.393586" y="119.438369" style="fill: #ccb974"/>
     <use xlink:href="#m954a807a74" x="171.950152" y="105.79707" style="fill: #ccb974"/>
     <use xlink:href="#m954a807a74" x="208.506717" y="103.33759" style="fill: #ccb974"/>
     <use xlink:href="#m954a807a74" x="245.063283" y="102.060125" style="fill: #ccb974"/>
     <use xlink:href="#m954a807a74" x="281.619848" y="101.081409" style="fill: #ccb974"/>
     <use xlink:href="#m954a807a74" x="318.176414" y="100.512509" style="fill: #ccb974"/>
     <use xlink:href="#m954a807a74" x="354.73298" y="100.249199" style="fill: #ccb974"/>
     <use xlink:href="#m954a807a74" x="391.289545" y="100.144485" style="fill: #ccb974"/>
    </g>
   </g>
   <g id="line2d_23">
    <path d="M 62.280455 340.278455 
L 98.83702 184.683175 
L 135.393586 119.418631 
L 171.950152 96.125722 
L 208.506717 90.102871 
L 245.063283 89.05779 
L 281.619848 88.932473 
L 318.176414 88.929738 
L 354.73298 88.934531 
L 391.289545 88.936716 
" clip-path="url(#p00d911fa01)" style="fill: none; stroke: #64b5cd; stroke-width: 1.75; stroke-linecap: round"/>
    <defs>
     <path id="mfba8727e0b" d="M 0 3.5 
C 0.928211 3.5 1.81853 3.131218 2.474874 2.474874 
C 3.131218 1.81853 3.5 0.928211 3.5 0 
C 3.5 -0.928211 3.131218 -1.81853 2.474874 -2.474874 
C 1.81853 -3.131218 0.928211 -3.5 0 -3.5 
C -0.928211 -3.5 -1.81853 -3.131218 -2.474874 -2.474874 
C -3.131218 -1.81853 -3.5 -0.928211 -3.5 0 
C -3.5 0.928211 -3.131218 1.81853 -2.474874 2.474874 
C -1.81853 3.131218 -0.928211 3.5 0 3.5 
z
"/>
    </defs>
    <g clip-path="url(#p00d911fa01)">
     <use xlink:href="#mfba8727e0b" x="62.280455" y="340.278455" style="fill: #64b5cd"/>
     <use xlink:href="#mfba8727e0b" x="98.83702" y="184.683175" style="fill: #64b5cd"/>
     <use xlink:href="#mfba8727e0b" x="135.393586" y="119.418631" style="fill: #64b5cd"/>
     <use xlink:href="#mfba8727e0b" x="171.950152" y="96.125722" style="fill: #64b5cd"/>
     <use xlink:href="#mfba8727e0b" x="208.506717" y="90.102871" style="fill: #64b5cd"/>
     <use xlink:href="#mfba8727e0b" x="245.063283" y="89.05779" style="fill: #64b5cd"/>
     <use xlink:href="#mfba8727e0b" x="281.619848" y="88.932473" style="fill: #64b5cd"/>
     <use xlink:href="#mfba8727e0b" x="318.176414" y="88.929738" style="fill: #64b5cd"/>
     <use xlink:href="#mfba8727e0b" x="354.73298" y="88.934531" style="fill: #64b5cd"/>
     <use xlink:href="#mfba8727e0b" x="391.289545" y="88.936716" style="fill: #64b5cd"/>
    </g>
   </g>
   <g id="line2d_24">
    <path d="M 62.280455 340.278455 
L 98.83702 184.683175 
L 135.393586 60.798315 
L 171.950152 39.780344 
L 208.506717 36.957663 
L 245.063283 36.416275 
L 281.619848 36.290125 
L 318.176414 36.258577 
L 354.73298 36.250088 
L 391.289545 36.247545 
" clip-path="url(#p00d911fa01)" style="fill: none; stroke: #4c72b0; stroke-width: 1.75; stroke-linecap: round"/>
    <defs>
     <path id="m936c20570c" d="M -0 3.5 
L 3.5 -3.5 
L -3.5 -3.5 
z
"/>
    </defs>
    <g clip-path="url(#p00d911fa01)">
     <use xlink:href="#m936c20570c" x="62.280455" y="340.278455" style="fill: #4c72b0"/>
     <use xlink:href="#m936c20570c" x="98.83702" y="184.683175" style="fill: #4c72b0"/>
     <use xlink:href="#m936c20570c" x="135.393586" y="60.798315" style="fill: #4c72b0"/>
     <use xlink:href="#m936c20570c" x="171.950152" y="39.780344" style="fill: #4c72b0"/>
     <use xlink:href="#m936c20570c" x="208.506717" y="36.957663" style="fill: #4c72b0"/>
     <use xlink:href="#m936c20570c" x="245.063283" y="36.416275" style="fill: #4c72b0"/>
     <use xlink:href="#m936c20570c" x="281.619848" y="36.290125" style="fill: #4c72b0"/>
     <use xlink:href="#m936c20570c" x="318.176414" y="36.258577" style="fill: #4c72b0"/>
     <use xlink:href="#m936c20570c" x="354.73298" y="36.250088" style="fill: #4c72b0"/>
     <use xlink:href="#m936c20570c" x="391.289545" y="36.247545" style="fill: #4c72b0"/>
    </g>
   </g>
   <g id="line2d_25">
    <path d="M 62.280455 340.278455 
L 98.83702 184.683175 
L 135.393586 123.582066 
L 171.950152 96.310959 
L 208.506717 89.605025 
L 245.063283 88.274013 
L 281.619848 88.014422 
L 318.176414 87.961814 
L 354.73298 87.950551 
L 391.289545 87.947964 
" clip-path="url(#p00d911fa01)" style="fill: none; stroke: #55a868; stroke-width: 1.75; stroke-linecap: round"/>
    <defs>
     <path id="m53b4f6abfe" d="M -3.5 0 
L 3.5 0 
M 0 3.5 
L 0 -3.5 
"/>
    </defs>
    <g clip-path="url(#p00d911fa01)">
     <use xlink:href="#m53b4f6abfe" x="62.280455" y="340.278455" style="fill: #55a868"/>
     <use xlink:href="#m53b4f6abfe" x="98.83702" y="184.683175" style="fill: #55a868"/>
     <use xlink:href="#m53b4f6abfe" x="135.393586" y="123.582066" style="fill: #55a868"/>
     <use xlink:href="#m53b4f6abfe" x="171.950152" y="96.310959" style="fill: #55a868"/>
     <use xlink:href="#m53b4f6abfe" x="208.506717" y="89.605025" style="fill: #55a868"/>
     <use xlink:href="#m53b4f6abfe" x="245.063283" y="88.274013" style="fill: #55a868"/>
     <use xlink:href="#m53b4f6abfe" x="281.619848" y="88.014422" style="fill: #55a868"/>
     <use xlink:href="#m53b4f6abfe" x="318.176414" y="87.961814" style="fill: #55a868"/>
     <use xlink:href="#m53b4f6abfe" x="354.73298" y="87.950551" style="fill: #55a868"/>
     <use xlink:href="#m53b4f6abfe" x="391.289545" y="87.947964" style="fill: #55a868"/>
    </g>
   </g>
   <g id="line2d_26">
    <path d="M 62.280455 340.278455 
L 98.83702 184.683175 
L 135.393586 124.212476 
L 171.950152 100.12684 
L 208.506717 92.663426 
L 245.063283 90.933105 
L 281.619848 90.583064 
L 318.176414 90.5169 
L 354.73298 90.505027 
L 391.289545 90.503029 
" clip-path="url(#p00d911fa01)" style="fill: none; stroke: #c44e52; stroke-width: 1.75; stroke-linecap: round"/>
    <defs>
     <path id="m095bc51208" d="M 0 4.949747 
L 4.949747 0 
L 0 -4.949747 
L -4.949747 0 
z
"/>
    </defs>
    <g clip-path="url(#p00d911fa01)">
     <use xlink:href="#m095bc51208" x="62.280455" y="340.278455" style="fill: #c44e52"/>
     <use xlink:href="#m095bc51208" x="98.83702" y="184.683175" style="fill: #c44e52"/>
     <use xlink:href="#m095bc51208" x="135.393586" y="124.212476" style="fill: #c44e52"/>
     <use xlink:href="#m095bc51208" x="171.950152" y="100.12684" style="fill: #c44e52"/>
     <use xlink:href="#m095bc51208" x="208.506717" y="92.663426" style="fill: #c44e52"/>
     <use xlink:href="#m095bc51208" x="245.063283" y="90.933105" style="fill: #c44e52"/>
     <use xlink:href="#m095bc51208" x="281.619848" y="90.583064" style="fill: #c44e52"/>
     <use xlink:href="#m095bc51208" x="318.176414" y="90.5169" style="fill: #c44e52"/>
     <use xlink:href="#m095bc51208" x="354.73298" y="90.505027" style="fill: #c44e52"/>
     <use xlink:href="#m095bc51208" x="391.289545" y="90.503029" style="fill: #c44e52"/>
    </g>
   </g>
   <g id="line2d_27">
    <path d="M 62.280455 340.278455 
L 98.83702 184.683175 
L 135.393586 107.548929 
L 171.950152 84.427478 
L 208.506717 78.534862 
L 245.063283 77.129192 
L 281.619848 76.83113 
L 318.176414 76.775158 
L 354.73298 76.765986 
L 391.289545 76.764786 
" clip-path="url(#p00d911fa01)" style="fill: none; stroke: #8172b2; stroke-width: 1.75; stroke-linecap: round"/>
    <defs>
     <path id="m405b0ddf97" d="M 0 1.75 
C 0.464105 1.75 0.909265 1.565609 1.237437 1.237437 
C 1.565609 0.909265 1.75 0.464105 1.75 0 
C 1.75 -0.464105 1.565609 -0.909265 1.237437 -1.237437 
C 0.909265 -1.565609 0.464105 -1.75 0 -1.75 
C -0.464105 -1.75 -0.909265 -1.565609 -1.237437 -1.237437 
C -1.565609 -0.909265 -1.75 -0.464105 -1.75 0 
C -1.75 0.464105 -1.565609 0.909265 -1.237437 1.237437 
C -0.909265 1.565609 -0.464105 1.75 0 1.75 
z
"/>
    </defs>
    <g clip-path="url(#p00d911fa01)">
     <use xlink:href="#m405b0ddf97" x="62.280455" y="340.278455" style="fill: #8172b2"/>
     <use xlink:href="#m405b0ddf97" x="98.83702" y="184.683175" style="fill: #8172b2"/>
     <use xlink:href="#m405b0ddf97" x="135.393586" y="107.548929" style="fill: #8172b2"/>
     <use xlink:href="#m405b0ddf97" x="171.950152" y="84.427478" style="fill: #8172b2"/>
     <use xlink:href="#m405b0ddf97" x="208.506717" y="78.534862" style="fill: #8172b2"/>
     <use xlink:href="#m405b0ddf97" x="245.063283" y="77.129192" style="fill: #8172b2"/>
     <use xlink:href="#m405b0ddf97" x="281.619848" y="76.83113" style="fill: #8172b2"/>
     <use xlink:href="#m405b0ddf97" x="318.176414" y="76.775158" style="fill: #8172b2"/>
     <use xlink:href="#m405b0ddf97" x="354.73298" y="76.765986" style="fill: #8172b2"/>
     <use xlink:href="#m405b0ddf97" x="391.289545" y="76.764786" style="fill: #8172b2"/>
    </g>
   </g>
   <g id="line2d_28">
    <path d="M 62.280455 340.278455 
L 98.83702 184.683175 
L 135.393586 85.941561 
L 171.950152 54.760961 
L 208.506717 49.625757 
L 245.063283 48.888285 
L 281.619848 48.783102 
L 318.176414 48.7694 
L 354.73298 48.76824 
L 391.289545 48.768364 
" clip-path="url(#p00d911fa01)" style="fill: none; stroke: #ccb974; stroke-width: 1.75; stroke-linecap: round"/>
    <defs>
     <path id="m22b8f9b170" d="M -0 3.5 
L 3.5 -3.5 
L -3.5 -3.5 
z
"/>
    </defs>
    <g clip-path="url(#p00d911fa01)">
     <use xlink:href="#m22b8f9b170" x="62.280455" y="340.278455" style="fill: #ccb974"/>
     <use xlink:href="#m22b8f9b170" x="98.83702" y="184.683175" style="fill: #ccb974"/>
     <use xlink:href="#m22b8f9b170" x="135.393586" y="85.941561" style="fill: #ccb974"/>
     <use xlink:href="#m22b8f9b170" x="171.950152" y="54.760961" style="fill: #ccb974"/>
     <use xlink:href="#m22b8f9b170" x="208.506717" y="49.625757" style="fill: #ccb974"/>
     <use xlink:href="#m22b8f9b170" x="245.063283" y="48.888285" style="fill: #ccb974"/>
     <use xlink:href="#m22b8f9b170" x="281.619848" y="48.783102" style="fill: #ccb974"/>
     <use xlink:href="#m22b8f9b170" x="318.176414" y="48.7694" style="fill: #ccb974"/>
     <use xlink:href="#m22b8f9b170" x="354.73298" y="48.76824" style="fill: #ccb974"/>
     <use xlink:href="#m22b8f9b170" x="391.289545" y="48.768364" style="fill: #ccb974"/>
    </g>
   </g>
   <g id="line2d_29">
    <path d="M 62.280455 340.278455 
L 98.83702 184.683175 
L 135.393586 128.052209 
L 171.950152 109.932921 
L 208.506717 104.155293 
L 245.063283 102.393866 
L 281.619848 101.913941 
L 318.176414 101.794987 
L 354.73298 101.767463 
L 391.289545 101.761418 
" clip-path="url(#p00d911fa01)" style="fill: none; stroke: #64b5cd; stroke-width: 1.75; stroke-linecap: round"/>
    <defs>
     <path id="m9650b50be5" d="M 0 -3.5 
L -3.5 3.5 
L 3.5 3.5 
z
"/>
    </defs>
    <g clip-path="url(#p00d911fa01)">
     <use xlink:href="#m9650b50be5" x="62.280455" y="340.278455" style="fill: #64b5cd"/>
     <use xlink:href="#m9650b50be5" x="98.83702" y="184.683175" style="fill: #64b5cd"/>
     <use xlink:href="#m9650b50be5" x="135.393586" y="128.052209" style="fill: #64b5cd"/>
     <use xlink:href="#m9650b50be5" x="171.950152" y="109.932921" style="fill: #64b5cd"/>
     <use xlink:href="#m9650b50be5" x="208.506717" y="104.155293" style="fill: #64b5cd"/>
     <use xlink:href="#m9650b50be5" x="245.063283" y="102.393866" style="fill: #64b5cd"/>
     <use xlink:href="#m9650b50be5" x="281.619848" y="101.913941" style="fill: #64b5cd"/>
     <use xlink:href="#m9650b50be5" x="318.176414" y="101.794987" style="fill: #64b5cd"/>
     <use xlink:href="#m9650b50be5" x="354.73298" y="101.767463" style="fill: #64b5cd"/>
     <use xlink:href="#m9650b50be5" x="391.289545" y="101.761418" style="fill: #64b5cd"/>
    </g>
   </g>
   <g id="line2d_30">
    <path d="M 62.280455 340.278455 
L 98.83702 184.683175 
L 135.393586 121.210213 
L 171.950152 94.829401 
L 208.506717 86.515954 
L 245.063283 84.430445 
L 281.619848 83.934389 
L 318.176414 83.817323 
L 354.73298 83.790128 
L 391.289545 83.783991 
" clip-path="url(#p00d911fa01)" style="fill: none; stroke: #4c72b0; stroke-width: 1.75; stroke-linecap: round"/>
    <defs>
     <path id="ma656b4fa39" d="M -3.5 -0 
L 3.5 3.5 
L 3.5 -3.5 
z
"/>
    </defs>
    <g clip-path="url(#p00d911fa01)">
     <use xlink:href="#ma656b4fa39" x="62.280455" y="340.278455" style="fill: #4c72b0"/>
     <use xlink:href="#ma656b4fa39" x="98.83702" y="184.683175" style="fill: #4c72b0"/>
     <use xlink:href="#ma656b4fa39" x="135.393586" y="121.210213" style="fill: #4c72b0"/>
     <use xlink:href="#ma656b4fa39" x="171.950152" y="94.829401" style="fill: #4c72b0"/>
     <use xlink:href="#ma656b4fa39" x="208.506717" y="86.515954" style="fill: #4c72b0"/>
     <use xlink:href="#ma656b4fa39" x="245.063283" y="84.430445" style="fill: #4c72b0"/>
     <use xlink:href="#ma656b4fa39" x="281.619848" y="83.934389" style="fill: #4c72b0"/>
     <use xlink:href="#ma656b4fa39" x="318.176414" y="83.817323" style="fill: #4c72b0"/>
     <use xlink:href="#ma656b4fa39" x="354.73298" y="83.790128" style="fill: #4c72b0"/>
     <use xlink:href="#ma656b4fa39" x="391.289545" y="83.783991" style="fill: #4c72b0"/>
    </g>
   </g>
   <g id="line2d_31">
    <path d="M 62.280455 340.278455 
L 98.83702 184.683175 
L 135.393586 120.760597 
L 171.950152 112.571105 
L 208.506717 116.888782 
L 245.063283 120.201944 
L 281.619848 121.515101 
L 318.176414 121.924842 
L 354.73298 122.038071 
L 391.289545 122.067195 
" clip-path="url(#p00d911fa01)" style="fill: none; stroke: #55a868; stroke-width: 1.75; stroke-linecap: round"/>
    <g clip-path="url(#p00d911fa01)">
     <use xlink:href="#m684675e5b3" x="62.280455" y="340.278455" style="fill: #55a868"/>
     <use xlink:href="#m684675e5b3" x="98.83702" y="184.683175" style="fill: #55a868"/>
     <use xlink:href="#m684675e5b3" x="135.393586" y="120.760597" style="fill: #55a868"/>
     <use xlink:href="#m684675e5b3" x="171.950152" y="112.571105" style="fill: #55a868"/>
     <use xlink:href="#m684675e5b3" x="208.506717" y="116.888782" style="fill: #55a868"/>
     <use xlink:href="#m684675e5b3" x="245.063283" y="120.201944" style="fill: #55a868"/>
     <use xlink:href="#m684675e5b3" x="281.619848" y="121.515101" style="fill: #55a868"/>
     <use xlink:href="#m684675e5b3" x="318.176414" y="121.924842" style="fill: #55a868"/>
     <use xlink:href="#m684675e5b3" x="354.73298" y="122.038071" style="fill: #55a868"/>
     <use xlink:href="#m684675e5b3" x="391.289545" y="122.067195" style="fill: #55a868"/>
    </g>
   </g>
   <g id="line2d_32">
    <path d="M 62.280455 340.278455 
L 98.83702 184.683175 
L 135.393586 173.546206 
L 171.950152 169.709819 
L 208.506717 165.040944 
L 245.063283 162.036722 
L 281.619848 160.70064 
L 318.176414 160.207563 
L 354.73298 160.043903 
L 391.289545 159.993122 
" clip-path="url(#p00d911fa01)" style="fill: none; stroke: #c44e52; stroke-width: 1.75; stroke-linecap: round"/>
    <g clip-path="url(#p00d911fa01)">
     <use xlink:href="#me2587d9510" x="62.280455" y="340.278455" style="fill: #c44e52"/>
     <use xlink:href="#me2587d9510" x="98.83702" y="184.683175" style="fill: #c44e52"/>
     <use xlink:href="#me2587d9510" x="135.393586" y="173.546206" style="fill: #c44e52"/>
     <use xlink:href="#me2587d9510" x="171.950152" y="169.709819" style="fill: #c44e52"/>
     <use xlink:href="#me2587d9510" x="208.506717" y="165.040944" style="fill: #c44e52"/>
     <use xlink:href="#me2587d9510" x="245.063283" y="162.036722" style="fill: #c44e52"/>
     <use xlink:href="#me2587d9510" x="281.619848" y="160.70064" style="fill: #c44e52"/>
     <use xlink:href="#me2587d9510" x="318.176414" y="160.207563" style="fill: #c44e52"/>
     <use xlink:href="#me2587d9510" x="354.73298" y="160.043903" style="fill: #c44e52"/>
     <use xlink:href="#me2587d9510" x="391.289545" y="159.993122" style="fill: #c44e52"/>
    </g>
   </g>
   <g id="line2d_33">
    <path d="M 62.280455 340.278455 
L 98.83702 184.683175 
L 135.393586 160.312279 
L 171.950152 163.245616 
L 208.506717 166.792012 
L 245.063283 168.13475 
L 281.619848 168.533878 
L 318.176414 168.642172 
L 354.73298 168.670207 
L 391.289545 168.677247 
" clip-path="url(#p00d911fa01)" style="fill: none; stroke: #8172b2; stroke-width: 1.75; stroke-linecap: round"/>
    <g clip-path="url(#p00d911fa01)">
     <use xlink:href="#m1557c922e1" x="62.280455" y="340.278455" style="fill: #8172b2"/>
     <use xlink:href="#m1557c922e1" x="98.83702" y="184.683175" style="fill: #8172b2"/>
     <use xlink:href="#m1557c922e1" x="135.393586" y="160.312279" style="fill: #8172b2"/>
     <use xlink:href="#m1557c922e1" x="171.950152" y="163.245616" style="fill: #8172b2"/>
     <use xlink:href="#m1557c922e1" x="208.506717" y="166.792012" style="fill: #8172b2"/>
     <use xlink:href="#m1557c922e1" x="245.063283" y="168.13475" style="fill: #8172b2"/>
     <use xlink:href="#m1557c922e1" x="281.619848" y="168.533878" style="fill: #8172b2"/>
     <use xlink:href="#m1557c922e1" x="318.176414" y="168.642172" style="fill: #8172b2"/>
     <use xlink:href="#m1557c922e1" x="354.73298" y="168.670207" style="fill: #8172b2"/>
     <use xlink:href="#m1557c922e1" x="391.289545" y="168.677247" style="fill: #8172b2"/>
    </g>
   </g>
   <g id="line2d_34">
    <path d="M 62.280455 340.278455 
L 98.83702 184.683175 
L 135.393586 190.737812 
L 171.950152 211.874276 
L 208.506717 222.494692 
L 245.063283 225.947974 
L 281.619848 226.90877 
L 318.176414 227.158747 
L 354.73298 227.221421 
L 391.289545 227.236747 
" clip-path="url(#p00d911fa01)" style="fill: none; stroke: #ccb974; stroke-width: 1.75; stroke-linecap: round"/>
    <g clip-path="url(#p00d911fa01)">
     <use xlink:href="#m954a807a74" x="62.280455" y="340.278455" style="fill: #ccb974"/>
     <use xlink:href="#m954a807a74" x="98.83702" y="184.683175" style="fill: #ccb974"/>
     <use xlink:href="#m954a807a74" x="135.393586" y="190.737812" style="fill: #ccb974"/>
     <use xlink:href="#m954a807a74" x="171.950152" y="211.874276" style="fill: #ccb974"/>
     <use xlink:href="#m954a807a74" x="208.506717" y="222.494692" style="fill: #ccb974"/>
     <use xlink:href="#m954a807a74" x="245.063283" y="225.947974" style="fill: #ccb974"/>
     <use xlink:href="#m954a807a74" x="281.619848" y="226.90877" style="fill: #ccb974"/>
     <use xlink:href="#m954a807a74" x="318.176414" y="227.158747" style="fill: #ccb974"/>
     <use xlink:href="#m954a807a74" x="354.73298" y="227.221421" style="fill: #ccb974"/>
     <use xlink:href="#m954a807a74" x="391.289545" y="227.236747" style="fill: #ccb974"/>
    </g>
   </g>
   <g id="line2d_35">
    <path d="M 62.280455 340.278455 
L 98.83702 184.683175 
L 135.393586 146.574988 
L 171.950152 137.762585 
L 208.506717 135.768473 
L 245.063283 135.319667 
L 281.619848 135.218782 
L 318.176414 135.196111 
L 354.73298 135.191017 
L 391.289545 135.189872 
" clip-path="url(#p00d911fa01)" style="fill: none; stroke: #64b5cd; stroke-width: 1.75; stroke-linecap: round"/>
    <defs>
     <path id="m9f4d677739" d="M -0 3.5 
L 3.5 -3.5 
L -3.5 -3.5 
z
"/>
    </defs>
    <g clip-path="url(#p00d911fa01)">
     <use xlink:href="#m9f4d677739" x="62.280455" y="340.278455" style="fill: #64b5cd"/>
     <use xlink:href="#m9f4d677739" x="98.83702" y="184.683175" style="fill: #64b5cd"/>
     <use xlink:href="#m9f4d677739" x="135.393586" y="146.574988" style="fill: #64b5cd"/>
     <use xlink:href="#m9f4d677739" x="171.950152" y="137.762585" style="fill: #64b5cd"/>
     <use xlink:href="#m9f4d677739" x="208.506717" y="135.768473" style="fill: #64b5cd"/>
     <use xlink:href="#m9f4d677739" x="245.063283" y="135.319667" style="fill: #64b5cd"/>
     <use xlink:href="#m9f4d677739" x="281.619848" y="135.218782" style="fill: #64b5cd"/>
     <use xlink:href="#m9f4d677739" x="318.176414" y="135.196111" style="fill: #64b5cd"/>
     <use xlink:href="#m9f4d677739" x="354.73298" y="135.191017" style="fill: #64b5cd"/>
     <use xlink:href="#m9f4d677739" x="391.289545" y="135.189872" style="fill: #64b5cd"/>
    </g>
   </g>
   <g id="patch_3">
    <path d="M 45.83 355.48 
L 45.83 21.046 
" style="fill: none"/>
   </g>
   <g id="patch_4">
    <path d="M 407.74 355.48 
L 407.74 21.046 
" style="fill: none"/>
   </g>
   <g id="patch_5">
    <path d="M 45.83 355.48 
L 407.74 355.48 
" style="fill: none"/>
   </g>
   <g id="patch_6">
    <path d="M 45.83 21.046 
L 407.74 21.046 
" style="fill: none"/>
   </g>
   <g id="legend_1">
    <g id="line2d_36">
     <path d="M 416.74 16.982112 
L 426.74 16.982112 
L 436.74 16.982112 
" style="fill: none; stroke: #4c72b0; stroke-width: 1.75; stroke-linecap: round"/>
     <g>
      <use xlink:href="#m4bc9ead3b0" x="426.74" y="16.982112" style="fill: #4c72b0"/>
     </g>
    </g>
    <g id="text_14">
     <!-- academia -->
     <g style="fill: #262626" transform="translate(444.74 20.482112) scale(0.1 -0.1)">
      <defs>
       <path id="ArialMT-64" d="M 2575 0 
L 2575 419 
Q 2259 -75 1647 -75 
Q 1250 -75 917 144 
Q 584 363 401 755 
Q 219 1147 219 1656 
Q 219 2153 384 2558 
Q 550 2963 881 3178 
Q 1213 3394 1622 3394 
Q 1922 3394 2156 3267 
Q 2391 3141 2538 2938 
L 2538 4581 
L 3097 4581 
L 3097 0 
L 2575 0 
z
M 797 1656 
Q 797 1019 1065 703 
Q 1334 388 1700 388 
Q 2069 388 2326 689 
Q 2584 991 2584 1609 
Q 2584 2291 2321 2609 
Q 2059 2928 1675 2928 
Q 1300 2928 1048 2622 
Q 797 2316 797 1656 
z
" transform="scale(0.015625)"/>
       <path id="ArialMT-6d" d="M 422 0 
L 422 3319 
L 925 3319 
L 925 2853 
Q 1081 3097 1340 3245 
Q 1600 3394 1931 3394 
Q 2300 3394 2536 3241 
Q 2772 3088 2869 2813 
Q 3263 3394 3894 3394 
Q 4388 3394 4653 3120 
Q 4919 2847 4919 2278 
L 4919 0 
L 4359 0 
L 4359 2091 
Q 4359 2428 4304 2576 
Q 4250 2725 4106 2815 
Q 3963 2906 3769 2906 
Q 3419 2906 3187 2673 
Q 2956 2441 2956 1928 
L 2956 0 
L 2394 0 
L 2394 2156 
Q 2394 2531 2256 2718 
Q 2119 2906 1806 2906 
Q 1569 2906 1367 2781 
Q 1166 2656 1075 2415 
Q 984 2175 984 1722 
L 984 0 
L 422 0 
z
" transform="scale(0.015625)"/>
      </defs>
      <use xlink:href="#ArialMT-61"/>
      <use xlink:href="#ArialMT-63" x="55.615234"/>
      <use xlink:href="#ArialMT-61" x="105.615234"/>
      <use xlink:href="#ArialMT-64" x="161.230469"/>
      <use xlink:href="#ArialMT-65" x="216.845703"/>
      <use xlink:href="#ArialMT-6d" x="272.460938"/>
      <use xlink:href="#ArialMT-69" x="355.761719"/>
      <use xlink:href="#ArialMT-61" x="377.978516"/>
     </g>
    </g>
    <g id="line2d_37">
     <path d="M 416.74 31.127425 
L 426.74 31.127425 
L 436.74 31.127425 
" style="fill: none; stroke: #55a868; stroke-width: 1.75; stroke-linecap: round"/>
     <g>
      <use xlink:href="#m1af4975c49" x="426.74" y="31.127425" style="fill: #55a868"/>
     </g>
    </g>
    <g id="text_15">
     <!-- agrochemicalsUse -->
     <g style="fill: #262626" transform="translate(444.74 34.627425) scale(0.1 -0.1)">
      <defs>
       <path id="ArialMT-67" d="M 319 -275 
L 866 -356 
Q 900 -609 1056 -725 
Q 1266 -881 1628 -881 
Q 2019 -881 2231 -725 
Q 2444 -569 2519 -288 
Q 2563 -116 2559 434 
Q 2191 0 1641 0 
Q 956 0 581 494 
Q 206 988 206 1678 
Q 206 2153 378 2554 
Q 550 2956 876 3175 
Q 1203 3394 1644 3394 
Q 2231 3394 2613 2919 
L 2613 3319 
L 3131 3319 
L 3131 450 
Q 3131 -325 2973 -648 
Q 2816 -972 2473 -1159 
Q 2131 -1347 1631 -1347 
Q 1038 -1347 672 -1080 
Q 306 -813 319 -275 
z
M 784 1719 
Q 784 1066 1043 766 
Q 1303 466 1694 466 
Q 2081 466 2343 764 
Q 2606 1063 2606 1700 
Q 2606 2309 2336 2618 
Q 2066 2928 1684 2928 
Q 1309 2928 1046 2623 
Q 784 2319 784 1719 
z
" transform="scale(0.015625)"/>
       <path id="ArialMT-68" d="M 422 0 
L 422 4581 
L 984 4581 
L 984 2938 
Q 1378 3394 1978 3394 
Q 2347 3394 2619 3248 
Q 2891 3103 3008 2847 
Q 3125 2591 3125 2103 
L 3125 0 
L 2563 0 
L 2563 2103 
Q 2563 2525 2380 2717 
Q 2197 2909 1863 2909 
Q 1613 2909 1392 2779 
Q 1172 2650 1078 2428 
Q 984 2206 984 1816 
L 984 0 
L 422 0 
z
" transform="scale(0.015625)"/>
       <path id="ArialMT-55" d="M 3500 4581 
L 4106 4581 
L 4106 1934 
Q 4106 1244 3950 837 
Q 3794 431 3386 176 
Q 2978 -78 2316 -78 
Q 1672 -78 1262 144 
Q 853 366 678 786 
Q 503 1206 503 1934 
L 503 4581 
L 1109 4581 
L 1109 1938 
Q 1109 1341 1220 1058 
Q 1331 775 1601 622 
Q 1872 469 2263 469 
Q 2931 469 3215 772 
Q 3500 1075 3500 1938 
L 3500 4581 
z
" transform="scale(0.015625)"/>
      </defs>
      <use xlink:href="#ArialMT-61"/>
      <use xlink:href="#ArialMT-67" x="55.615234"/>
      <use xlink:href="#ArialMT-72" x="111.230469"/>
      <use xlink:href="#ArialMT-6f" x="144.53125"/>
      <use xlink:href="#ArialMT-63" x="200.146484"/>
      <use xlink:href="#ArialMT-68" x="250.146484"/>
      <use xlink:href="#ArialMT-65" x="305.761719"/>
      <use xlink:href="#ArialMT-6d" x="361.376953"/>
      <use xlink:href="#ArialMT-69" x="444.677734"/>
      <use xlink:href="#ArialMT-63" x="466.894531"/>
      <use xlink:href="#ArialMT-61" x="516.894531"/>
      <use xlink:href="#ArialMT-6c" x="572.509766"/>
      <use xlink:href="#ArialMT-73" x="594.726562"/>
      <use xlink:href="#ArialMT-55" x="644.726562"/>
      <use xlink:href="#ArialMT-73" x="716.943359"/>
      <use xlink:href="#ArialMT-65" x="766.943359"/>
     </g>
    </g>
    <g id="line2d_38">
     <path d="M 416.74 45.389925 
L 426.74 45.389925 
L 436.74 45.389925 
" style="fill: none; stroke: #c44e52; stroke-width: 1.75; stroke-linecap: round"/>
     <g>
      <use xlink:href="#mba3fac34de" x="426.74" y="45.389925" style="fill: #c44e52"/>
     </g>
    </g>
    <g id="text_16">
     <!-- businessRisk -->
     <g style="fill: #262626" transform="translate(444.74 48.889925) scale(0.1 -0.1)">
      <defs>
       <path id="ArialMT-62" d="M 941 0 
L 419 0 
L 419 4581 
L 981 4581 
L 981 2947 
Q 1338 3394 1891 3394 
Q 2197 3394 2470 3270 
Q 2744 3147 2920 2923 
Q 3097 2700 3197 2384 
Q 3297 2069 3297 1709 
Q 3297 856 2875 390 
Q 2453 -75 1863 -75 
Q 1275 -75 941 416 
L 941 0 
z
M 934 1684 
Q 934 1088 1097 822 
Q 1363 388 1816 388 
Q 2184 388 2453 708 
Q 2722 1028 2722 1663 
Q 2722 2313 2464 2622 
Q 2206 2931 1841 2931 
Q 1472 2931 1203 2611 
Q 934 2291 934 1684 
z
" transform="scale(0.015625)"/>
       <path id="ArialMT-52" d="M 503 0 
L 503 4581 
L 2534 4581 
Q 3147 4581 3465 4457 
Q 3784 4334 3975 4021 
Q 4166 3709 4166 3331 
Q 4166 2844 3850 2509 
Q 3534 2175 2875 2084 
Q 3116 1969 3241 1856 
Q 3506 1613 3744 1247 
L 4541 0 
L 3778 0 
L 3172 953 
Q 2906 1366 2734 1584 
Q 2563 1803 2427 1890 
Q 2291 1978 2150 2013 
Q 2047 2034 1813 2034 
L 1109 2034 
L 1109 0 
L 503 0 
z
M 1109 2559 
L 2413 2559 
Q 2828 2559 3062 2645 
Q 3297 2731 3419 2920 
Q 3541 3109 3541 3331 
Q 3541 3656 3305 3865 
Q 3069 4075 2559 4075 
L 1109 4075 
L 1109 2559 
z
" transform="scale(0.015625)"/>
       <path id="ArialMT-6b" d="M 425 0 
L 425 4581 
L 988 4581 
L 988 1969 
L 2319 3319 
L 3047 3319 
L 1778 2088 
L 3175 0 
L 2481 0 
L 1384 1697 
L 988 1316 
L 988 0 
L 425 0 
z
" transform="scale(0.015625)"/>
      </defs>
      <use xlink:href="#ArialMT-62"/>
      <use xlink:href="#ArialMT-75" x="55.615234"/>
      <use xlink:href="#ArialMT-73" x="111.230469"/>
      <use xlink:href="#ArialMT-69" x="161.230469"/>
      <use xlink:href="#ArialMT-6e" x="183.447266"/>
      <use xlink:href="#ArialMT-65" x="239.0625"/>
      <use xlink:href="#ArialMT-73" x="294.677734"/>
      <use xlink:href="#ArialMT-73" x="344.677734"/>
      <use xlink:href="#ArialMT-52" x="394.677734"/>
      <use xlink:href="#ArialMT-69" x="466.894531"/>
      <use xlink:href="#ArialMT-73" x="489.111328"/>
      <use xlink:href="#ArialMT-6b" x="539.111328"/>
     </g>
    </g>
    <g id="line2d_39">
     <path d="M 416.74 59.535237 
L 426.74 59.535237 
L 436.74 59.535237 
" style="fill: none; stroke: #8172b2; stroke-width: 1.75; stroke-linecap: round"/>
     <g>
      <use xlink:href="#mf06cb36fe6" x="426.74" y="59.535237" style="fill: #8172b2"/>
     </g>
    </g>
    <g id="text_17">
     <!-- collabComms -->
     <g style="fill: #262626" transform="translate(444.74 63.035237) scale(0.1 -0.1)">
      <use xlink:href="#ArialMT-63"/>
      <use xlink:href="#ArialMT-6f" x="50"/>
      <use xlink:href="#ArialMT-6c" x="105.615234"/>
      <use xlink:href="#ArialMT-6c" x="127.832031"/>
      <use xlink:href="#ArialMT-61" x="150.048828"/>
      <use xlink:href="#ArialMT-62" x="205.664062"/>
      <use xlink:href="#ArialMT-43" x="261.279297"/>
      <use xlink:href="#ArialMT-6f" x="333.496094"/>
      <use xlink:href="#ArialMT-6d" x="389.111328"/>
      <use xlink:href="#ArialMT-6d" x="472.412109"/>
      <use xlink:href="#ArialMT-73" x="555.712891"/>
     </g>
    </g>
    <g id="line2d_40">
     <path d="M 416.74 73.68055 
L 426.74 73.68055 
L 436.74 73.68055 
" style="fill: none; stroke: #ccb974; stroke-width: 1.75; stroke-linecap: round"/>
     <g>
      <use xlink:href="#mbe606ca51b" x="426.74" y="73.68055" style="fill: #ccb974"/>
     </g>
    </g>
    <g id="text_18">
     <!-- communityHealth -->
     <g style="fill: #262626" transform="translate(444.74 77.18055) scale(0.1 -0.1)">
      <defs>
       <path id="ArialMT-79" d="M 397 -1278 
L 334 -750 
Q 519 -800 656 -800 
Q 844 -800 956 -737 
Q 1069 -675 1141 -563 
Q 1194 -478 1313 -144 
Q 1328 -97 1363 -6 
L 103 3319 
L 709 3319 
L 1400 1397 
Q 1534 1031 1641 628 
Q 1738 1016 1872 1384 
L 2581 3319 
L 3144 3319 
L 1881 -56 
Q 1678 -603 1566 -809 
Q 1416 -1088 1222 -1217 
Q 1028 -1347 759 -1347 
Q 597 -1347 397 -1278 
z
" transform="scale(0.015625)"/>
       <path id="ArialMT-48" d="M 513 0 
L 513 4581 
L 1119 4581 
L 1119 2700 
L 3500 2700 
L 3500 4581 
L 4106 4581 
L 4106 0 
L 3500 0 
L 3500 2159 
L 1119 2159 
L 1119 0 
L 513 0 
z
" transform="scale(0.015625)"/>
      </defs>
      <use xlink:href="#ArialMT-63"/>
      <use xlink:href="#ArialMT-6f" x="50"/>
      <use xlink:href="#ArialMT-6d" x="105.615234"/>
      <use xlink:href="#ArialMT-6d" x="188.916016"/>
      <use xlink:href="#ArialMT-75" x="272.216797"/>
      <use xlink:href="#ArialMT-6e" x="327.832031"/>
      <use xlink:href="#ArialMT-69" x="383.447266"/>
      <use xlink:href="#ArialMT-74" x="405.664062"/>
      <use xlink:href="#ArialMT-79" x="433.447266"/>
      <use xlink:href="#ArialMT-48" x="483.447266"/>
      <use xlink:href="#ArialMT-65" x="555.664062"/>
      <use xlink:href="#ArialMT-61" x="611.279297"/>
      <use xlink:href="#ArialMT-6c" x="666.894531"/>
      <use xlink:href="#ArialMT-74" x="689.111328"/>
      <use xlink:href="#ArialMT-68" x="716.894531"/>
     </g>
    </g>
    <g id="line2d_41">
     <path d="M 416.74 87.94305 
L 426.74 87.94305 
L 436.74 87.94305 
" style="fill: none; stroke: #64b5cd; stroke-width: 1.75; stroke-linecap: round"/>
     <g>
      <use xlink:href="#mb457422ffc" x="426.74" y="87.94305" style="fill: #64b5cd"/>
     </g>
    </g>
    <g id="text_19">
     <!-- costFFmaterials -->
     <g style="fill: #262626" transform="translate(444.74 91.44305) scale(0.1 -0.1)">
      <defs>
       <path id="ArialMT-46" d="M 525 0 
L 525 4581 
L 3616 4581 
L 3616 4041 
L 1131 4041 
L 1131 2622 
L 3281 2622 
L 3281 2081 
L 1131 2081 
L 1131 0 
L 525 0 
z
" transform="scale(0.015625)"/>
      </defs>
      <use xlink:href="#ArialMT-63"/>
      <use xlink:href="#ArialMT-6f" x="50"/>
      <use xlink:href="#ArialMT-73" x="105.615234"/>
      <use xlink:href="#ArialMT-74" x="155.615234"/>
      <use xlink:href="#ArialMT-46" x="183.398438"/>
      <use xlink:href="#ArialMT-46" x="244.482422"/>
      <use xlink:href="#ArialMT-6d" x="305.566406"/>
      <use xlink:href="#ArialMT-61" x="388.867188"/>
      <use xlink:href="#ArialMT-74" x="444.482422"/>
      <use xlink:href="#ArialMT-65" x="472.265625"/>
      <use xlink:href="#ArialMT-72" x="527.880859"/>
      <use xlink:href="#ArialMT-69" x="561.181641"/>
      <use xlink:href="#ArialMT-61" x="583.398438"/>
      <use xlink:href="#ArialMT-6c" x="639.013672"/>
      <use xlink:href="#ArialMT-73" x="661.230469"/>
     </g>
    </g>
    <g id="line2d_42">
     <path d="M 416.74 102.088362 
L 426.74 102.088362 
L 436.74 102.088362 
" style="fill: none; stroke: #4c72b0; stroke-width: 1.75; stroke-linecap: round"/>
     <g>
      <use xlink:href="#mf06b29672d" x="426.74" y="102.088362" style="fill: #4c72b0"/>
     </g>
    </g>
    <g id="text_20">
     <!-- employment -->
     <g style="fill: #262626" transform="translate(444.74 105.588362) scale(0.1 -0.1)">
      <use xlink:href="#ArialMT-65"/>
      <use xlink:href="#ArialMT-6d" x="55.615234"/>
      <use xlink:href="#ArialMT-70" x="138.916016"/>
      <use xlink:href="#ArialMT-6c" x="194.53125"/>
      <use xlink:href="#ArialMT-6f" x="216.748047"/>
      <use xlink:href="#ArialMT-79" x="272.363281"/>
      <use xlink:href="#ArialMT-6d" x="322.363281"/>
      <use xlink:href="#ArialMT-65" x="405.664062"/>
      <use xlink:href="#ArialMT-6e" x="461.279297"/>
      <use xlink:href="#ArialMT-74" x="516.894531"/>
     </g>
    </g>
    <g id="line2d_43">
     <path d="M 416.74 116.350862 
L 426.74 116.350862 
L 436.74 116.350862 
" style="fill: none; stroke: #55a868; stroke-width: 1.75; stroke-linecap: round"/>
     <g>
      <use xlink:href="#m684675e5b3" x="426.74" y="116.350862" style="fill: #55a868"/>
     </g>
    </g>
    <g id="text_21">
     <!-- fieldExtraction -->
     <g style="fill: #262626" transform="translate(444.74 119.850862) scale(0.1 -0.1)">
      <defs>
       <path id="ArialMT-66" d="M 556 0 
L 556 2881 
L 59 2881 
L 59 3319 
L 556 3319 
L 556 3672 
Q 556 4006 616 4169 
Q 697 4388 901 4523 
Q 1106 4659 1475 4659 
Q 1713 4659 2000 4603 
L 1916 4113 
Q 1741 4144 1584 4144 
Q 1328 4144 1222 4034 
Q 1116 3925 1116 3625 
L 1116 3319 
L 1763 3319 
L 1763 2881 
L 1116 2881 
L 1116 0 
L 556 0 
z
" transform="scale(0.015625)"/>
       <path id="ArialMT-45" d="M 506 0 
L 506 4581 
L 3819 4581 
L 3819 4041 
L 1113 4041 
L 1113 2638 
L 3647 2638 
L 3647 2100 
L 1113 2100 
L 1113 541 
L 3925 541 
L 3925 0 
L 506 0 
z
" transform="scale(0.015625)"/>
       <path id="ArialMT-78" d="M 47 0 
L 1259 1725 
L 138 3319 
L 841 3319 
L 1350 2541 
Q 1494 2319 1581 2169 
Q 1719 2375 1834 2534 
L 2394 3319 
L 3066 3319 
L 1919 1756 
L 3153 0 
L 2463 0 
L 1781 1031 
L 1600 1309 
L 728 0 
L 47 0 
z
" transform="scale(0.015625)"/>
      </defs>
      <use xlink:href="#ArialMT-66"/>
      <use xlink:href="#ArialMT-69" x="27.783203"/>
      <use xlink:href="#ArialMT-65" x="50"/>
      <use xlink:href="#ArialMT-6c" x="105.615234"/>
      <use xlink:href="#ArialMT-64" x="127.832031"/>
      <use xlink:href="#ArialMT-45" x="183.447266"/>
      <use xlink:href="#ArialMT-78" x="250.146484"/>
      <use xlink:href="#ArialMT-74" x="300.146484"/>
      <use xlink:href="#ArialMT-72" x="327.929688"/>
      <use xlink:href="#ArialMT-61" x="361.230469"/>
      <use xlink:href="#ArialMT-63" x="416.845703"/>
      <use xlink:href="#ArialMT-74" x="466.845703"/>
      <use xlink:href="#ArialMT-69" x="494.628906"/>
      <use xlink:href="#ArialMT-6f" x="516.845703"/>
      <use xlink:href="#ArialMT-6e" x="572.460938"/>
     </g>
    </g>
    <g id="line2d_44">
     <path d="M 416.74 130.61805 
L 426.74 130.61805 
L 436.74 130.61805 
" style="fill: none; stroke: #c44e52; stroke-width: 1.75; stroke-linecap: round"/>
     <g>
      <use xlink:href="#me2587d9510" x="426.74" y="130.61805" style="fill: #c44e52"/>
     </g>
    </g>
    <g id="text_22">
     <!-- funding -->
     <g style="fill: #262626" transform="translate(444.74 134.11805) scale(0.1 -0.1)">
      <use xlink:href="#ArialMT-66"/>
      <use xlink:href="#ArialMT-75" x="27.783203"/>
      <use xlink:href="#ArialMT-6e" x="83.398438"/>
      <use xlink:href="#ArialMT-64" x="139.013672"/>
      <use xlink:href="#ArialMT-69" x="194.628906"/>
      <use xlink:href="#ArialMT-6e" x="216.845703"/>
      <use xlink:href="#ArialMT-67" x="272.460938"/>
     </g>
    </g>
    <g id="line2d_45">
     <path d="M 416.74 145.002425 
L 426.74 145.002425 
L 436.74 145.002425 
" style="fill: none; stroke: #8172b2; stroke-width: 1.75; stroke-linecap: round"/>
     <g>
      <use xlink:href="#m1557c922e1" x="426.74" y="145.002425" style="fill: #8172b2"/>
     </g>
    </g>
    <g id="text_23">
     <!-- industryCustoms -->
     <g style="fill: #262626" transform="translate(444.74 148.502425) scale(0.1 -0.1)">
      <use xlink:href="#ArialMT-69"/>
      <use xlink:href="#ArialMT-6e" x="22.216797"/>
      <use xlink:href="#ArialMT-64" x="77.832031"/>
      <use xlink:href="#ArialMT-75" x="133.447266"/>
      <use xlink:href="#ArialMT-73" x="189.0625"/>
      <use xlink:href="#ArialMT-74" x="239.0625"/>
      <use xlink:href="#ArialMT-72" x="266.845703"/>
      <use xlink:href="#ArialMT-79" x="300.146484"/>
      <use xlink:href="#ArialMT-43" x="350.146484"/>
      <use xlink:href="#ArialMT-75" x="422.363281"/>
      <use xlink:href="#ArialMT-73" x="477.978516"/>
      <use xlink:href="#ArialMT-74" x="527.978516"/>
      <use xlink:href="#ArialMT-6f" x="555.761719"/>
      <use xlink:href="#ArialMT-6d" x="611.376953"/>
      <use xlink:href="#ArialMT-73" x="694.677734"/>
     </g>
    </g>
    <g id="line2d_46">
     <path d="M 416.74 159.264925 
L 426.74 159.264925 
L 436.74 159.264925 
" style="fill: none; stroke: #ccb974; stroke-width: 1.75; stroke-linecap: round"/>
     <g>
      <use xlink:href="#m954a807a74" x="426.74" y="159.264925" style="fill: #ccb974"/>
     </g>
    </g>
    <g id="text_24">
     <!-- industryImage -->
     <g style="fill: #262626" transform="translate(444.74 162.764925) scale(0.1 -0.1)">
      <use xlink:href="#ArialMT-69"/>
      <use xlink:href="#ArialMT-6e" x="22.216797"/>
      <use xlink:href="#ArialMT-64" x="77.832031"/>
      <use xlink:href="#ArialMT-75" x="133.447266"/>
      <use xlink:href="#ArialMT-73" x="189.0625"/>
      <use xlink:href="#ArialMT-74" x="239.0625"/>
      <use xlink:href="#ArialMT-72" x="266.845703"/>
      <use xlink:href="#ArialMT-79" x="300.146484"/>
      <use xlink:href="#ArialMT-49" x="350.146484"/>
      <use xlink:href="#ArialMT-6d" x="377.929688"/>
      <use xlink:href="#ArialMT-61" x="461.230469"/>
      <use xlink:href="#ArialMT-67" x="516.845703"/>
      <use xlink:href="#ArialMT-65" x="572.460938"/>
     </g>
    </g>
    <g id="line2d_47">
     <path d="M 416.74 173.6493 
L 426.74 173.6493 
L 436.74 173.6493 
" style="fill: none; stroke: #64b5cd; stroke-width: 1.75; stroke-linecap: round"/>
     <g>
      <use xlink:href="#mfba8727e0b" x="426.74" y="173.6493" style="fill: #64b5cd"/>
     </g>
    </g>
    <g id="text_25">
     <!-- industrySustainability -->
     <g style="fill: #262626" transform="translate(444.74 177.1493) scale(0.1 -0.1)">
      <use xlink:href="#ArialMT-69"/>
      <use xlink:href="#ArialMT-6e" x="22.216797"/>
      <use xlink:href="#ArialMT-64" x="77.832031"/>
      <use xlink:href="#ArialMT-75" x="133.447266"/>
      <use xlink:href="#ArialMT-73" x="189.0625"/>
      <use xlink:href="#ArialMT-74" x="239.0625"/>
      <use xlink:href="#ArialMT-72" x="266.845703"/>
      <use xlink:href="#ArialMT-79" x="300.146484"/>
      <use xlink:href="#ArialMT-53" x="350.146484"/>
      <use xlink:href="#ArialMT-75" x="416.845703"/>
      <use xlink:href="#ArialMT-73" x="472.460938"/>
      <use xlink:href="#ArialMT-74" x="522.460938"/>
      <use xlink:href="#ArialMT-61" x="550.244141"/>
      <use xlink:href="#ArialMT-69" x="605.859375"/>
      <use xlink:href="#ArialMT-6e" x="628.076172"/>
      <use xlink:href="#ArialMT-61" x="683.691406"/>
      <use xlink:href="#ArialMT-62" x="739.306641"/>
      <use xlink:href="#ArialMT-69" x="794.921875"/>
      <use xlink:href="#ArialMT-6c" x="817.138672"/>
      <use xlink:href="#ArialMT-69" x="839.355469"/>
      <use xlink:href="#ArialMT-74" x="861.572266"/>
      <use xlink:href="#ArialMT-79" x="889.355469"/>
     </g>
    </g>
    <g id="line2d_48">
     <path d="M 416.74 187.9118 
L 426.74 187.9118 
L 436.74 187.9118 
" style="fill: none; stroke: #4c72b0; stroke-width: 1.75; stroke-linecap: round"/>
     <g>
      <use xlink:href="#m936c20570c" x="426.74" y="187.9118" style="fill: #4c72b0"/>
     </g>
    </g>
    <g id="text_26">
     <!-- innovation -->
     <g style="fill: #262626" transform="translate(444.74 191.4118) scale(0.1 -0.1)">
      <use xlink:href="#ArialMT-69"/>
      <use xlink:href="#ArialMT-6e" x="22.216797"/>
      <use xlink:href="#ArialMT-6e" x="77.832031"/>
      <use xlink:href="#ArialMT-6f" x="133.447266"/>
      <use xlink:href="#ArialMT-76" x="189.0625"/>
      <use xlink:href="#ArialMT-61" x="239.0625"/>
      <use xlink:href="#ArialMT-74" x="294.677734"/>
      <use xlink:href="#ArialMT-69" x="322.460938"/>
      <use xlink:href="#ArialMT-6f" x="344.677734"/>
      <use xlink:href="#ArialMT-6e" x="400.292969"/>
     </g>
    </g>
    <g id="line2d_49">
     <path d="M 416.74 202.057112 
L 426.74 202.057112 
L 436.74 202.057112 
" style="fill: none; stroke: #55a868; stroke-width: 1.75; stroke-linecap: round"/>
     <g>
      <use xlink:href="#m53b4f6abfe" x="426.74" y="202.057112" style="fill: #55a868"/>
     </g>
    </g>
    <g id="text_27">
     <!-- laborProductivity -->
     <g style="fill: #262626" transform="translate(444.74 205.557112) scale(0.1 -0.1)">
      <defs>
       <path id="ArialMT-50" d="M 494 0 
L 494 4581 
L 2222 4581 
Q 2678 4581 2919 4538 
Q 3256 4481 3484 4323 
Q 3713 4166 3852 3881 
Q 3991 3597 3991 3256 
Q 3991 2672 3619 2267 
Q 3247 1863 2275 1863 
L 1100 1863 
L 1100 0 
L 494 0 
z
M 1100 2403 
L 2284 2403 
Q 2872 2403 3119 2622 
Q 3366 2841 3366 3238 
Q 3366 3525 3220 3729 
Q 3075 3934 2838 4000 
Q 2684 4041 2272 4041 
L 1100 4041 
L 1100 2403 
z
" transform="scale(0.015625)"/>
      </defs>
      <use xlink:href="#ArialMT-6c"/>
      <use xlink:href="#ArialMT-61" x="22.216797"/>
      <use xlink:href="#ArialMT-62" x="77.832031"/>
      <use xlink:href="#ArialMT-6f" x="133.447266"/>
      <use xlink:href="#ArialMT-72" x="189.0625"/>
      <use xlink:href="#ArialMT-50" x="222.363281"/>
      <use xlink:href="#ArialMT-72" x="289.0625"/>
      <use xlink:href="#ArialMT-6f" x="322.363281"/>
      <use xlink:href="#ArialMT-64" x="377.978516"/>
      <use xlink:href="#ArialMT-75" x="433.59375"/>
      <use xlink:href="#ArialMT-63" x="489.208984"/>
      <use xlink:href="#ArialMT-74" x="539.208984"/>
      <use xlink:href="#ArialMT-69" x="566.992188"/>
      <use xlink:href="#ArialMT-76" x="589.208984"/>
      <use xlink:href="#ArialMT-69" x="639.208984"/>
      <use xlink:href="#ArialMT-74" x="661.425781"/>
      <use xlink:href="#ArialMT-79" x="689.208984"/>
     </g>
    </g>
    <g id="line2d_50">
     <path d="M 416.74 216.319612 
L 426.74 216.319612 
L 436.74 216.319612 
" style="fill: none; stroke: #c44e52; stroke-width: 1.75; stroke-linecap: round"/>
     <g>
      <use xlink:href="#m095bc51208" x="426.74" y="216.319612" style="fill: #c44e52"/>
     </g>
    </g>
    <g id="text_28">
     <!-- landAvailable -->
     <g style="fill: #262626" transform="translate(444.74 219.819612) scale(0.1 -0.1)">
      <defs>
       <path id="ArialMT-41" d="M -9 0 
L 1750 4581 
L 2403 4581 
L 4278 0 
L 3588 0 
L 3053 1388 
L 1138 1388 
L 634 0 
L -9 0 
z
M 1313 1881 
L 2866 1881 
L 2388 3150 
Q 2169 3728 2063 4100 
Q 1975 3659 1816 3225 
L 1313 1881 
z
" transform="scale(0.015625)"/>
      </defs>
      <use xlink:href="#ArialMT-6c"/>
      <use xlink:href="#ArialMT-61" x="22.216797"/>
      <use xlink:href="#ArialMT-6e" x="77.832031"/>
      <use xlink:href="#ArialMT-64" x="133.447266"/>
      <use xlink:href="#ArialMT-41" x="189.0625"/>
      <use xlink:href="#ArialMT-76" x="254.011719"/>
      <use xlink:href="#ArialMT-61" x="304.011719"/>
      <use xlink:href="#ArialMT-69" x="359.626953"/>
      <use xlink:href="#ArialMT-6c" x="381.84375"/>
      <use xlink:href="#ArialMT-61" x="404.060547"/>
      <use xlink:href="#ArialMT-62" x="459.675781"/>
      <use xlink:href="#ArialMT-6c" x="515.291016"/>
      <use xlink:href="#ArialMT-65" x="537.507812"/>
     </g>
    </g>
    <g id="line2d_51">
     <path d="M 416.74 230.464925 
L 426.74 230.464925 
L 436.74 230.464925 
" style="fill: none; stroke: #8172b2; stroke-width: 1.75; stroke-linecap: round"/>
     <g>
      <use xlink:href="#m405b0ddf97" x="426.74" y="230.464925" style="fill: #8172b2"/>
     </g>
    </g>
    <g id="text_29">
     <!-- palProductsDemand -->
     <g style="fill: #262626" transform="translate(444.74 233.964925) scale(0.1 -0.1)">
      <defs>
       <path id="ArialMT-44" d="M 494 0 
L 494 4581 
L 2072 4581 
Q 2606 4581 2888 4516 
Q 3281 4425 3559 4188 
Q 3922 3881 4101 3404 
Q 4281 2928 4281 2316 
Q 4281 1794 4159 1391 
Q 4038 988 3847 723 
Q 3656 459 3429 307 
Q 3203 156 2883 78 
Q 2563 0 2147 0 
L 494 0 
z
M 1100 541 
L 2078 541 
Q 2531 541 2789 625 
Q 3047 709 3200 863 
Q 3416 1078 3536 1442 
Q 3656 1806 3656 2325 
Q 3656 3044 3420 3430 
Q 3184 3816 2847 3947 
Q 2603 4041 2063 4041 
L 1100 4041 
L 1100 541 
z
" transform="scale(0.015625)"/>
      </defs>
      <use xlink:href="#ArialMT-70"/>
      <use xlink:href="#ArialMT-61" x="55.615234"/>
      <use xlink:href="#ArialMT-6c" x="111.230469"/>
      <use xlink:href="#ArialMT-50" x="133.447266"/>
      <use xlink:href="#ArialMT-72" x="200.146484"/>
      <use xlink:href="#ArialMT-6f" x="233.447266"/>
      <use xlink:href="#ArialMT-64" x="289.0625"/>
      <use xlink:href="#ArialMT-75" x="344.677734"/>
      <use xlink:href="#ArialMT-63" x="400.292969"/>
      <use xlink:href="#ArialMT-74" x="450.292969"/>
      <use xlink:href="#ArialMT-73" x="478.076172"/>
      <use xlink:href="#ArialMT-44" x="528.076172"/>
      <use xlink:href="#ArialMT-65" x="600.292969"/>
      <use xlink:href="#ArialMT-6d" x="655.908203"/>
      <use xlink:href="#ArialMT-61" x="739.208984"/>
      <use xlink:href="#ArialMT-6e" x="794.824219"/>
      <use xlink:href="#ArialMT-64" x="850.439453"/>
     </g>
    </g>
    <g id="line2d_52">
     <path d="M 416.74 244.610237 
L 426.74 244.610237 
L 436.74 244.610237 
" style="fill: none; stroke: #ccb974; stroke-width: 1.75; stroke-linecap: round"/>
     <g>
      <use xlink:href="#m22b8f9b170" x="426.74" y="244.610237" style="fill: #ccb974"/>
     </g>
    </g>
    <g id="text_30">
     <!-- palValorization -->
     <g style="fill: #262626" transform="translate(444.74 248.110237) scale(0.1 -0.1)">
      <defs>
       <path id="ArialMT-56" d="M 1803 0 
L 28 4581 
L 684 4581 
L 1875 1253 
Q 2019 853 2116 503 
Q 2222 878 2363 1253 
L 3600 4581 
L 4219 4581 
L 2425 0 
L 1803 0 
z
" transform="scale(0.015625)"/>
       <path id="ArialMT-7a" d="M 125 0 
L 125 456 
L 2238 2881 
Q 1878 2863 1603 2863 
L 250 2863 
L 250 3319 
L 2963 3319 
L 2963 2947 
L 1166 841 
L 819 456 
Q 1197 484 1528 484 
L 3063 484 
L 3063 0 
L 125 0 
z
" transform="scale(0.015625)"/>
      </defs>
      <use xlink:href="#ArialMT-70"/>
      <use xlink:href="#ArialMT-61" x="55.615234"/>
      <use xlink:href="#ArialMT-6c" x="111.230469"/>
      <use xlink:href="#ArialMT-56" x="133.447266"/>
      <use xlink:href="#ArialMT-61" x="192.771484"/>
      <use xlink:href="#ArialMT-6c" x="248.386719"/>
      <use xlink:href="#ArialMT-6f" x="270.603516"/>
      <use xlink:href="#ArialMT-72" x="326.21875"/>
      <use xlink:href="#ArialMT-69" x="359.519531"/>
      <use xlink:href="#ArialMT-7a" x="381.736328"/>
      <use xlink:href="#ArialMT-61" x="431.736328"/>
      <use xlink:href="#ArialMT-74" x="487.351562"/>
      <use xlink:href="#ArialMT-69" x="515.134766"/>
      <use xlink:href="#ArialMT-6f" x="537.351562"/>
      <use xlink:href="#ArialMT-6e" x="592.966797"/>
     </g>
    </g>
    <g id="line2d_53">
     <path d="M 416.74 258.75555 
L 426.74 258.75555 
L 436.74 258.75555 
" style="fill: none; stroke: #64b5cd; stroke-width: 1.75; stroke-linecap: round"/>
     <g>
      <use xlink:href="#m9650b50be5" x="426.74" y="258.75555" style="fill: #64b5cd"/>
     </g>
    </g>
    <g id="text_31">
     <!-- pineappleProdProductivity -->
     <g style="fill: #262626" transform="translate(444.74 262.25555) scale(0.1 -0.1)">
      <use xlink:href="#ArialMT-70"/>
      <use xlink:href="#ArialMT-69" x="55.615234"/>
      <use xlink:href="#ArialMT-6e" x="77.832031"/>
      <use xlink:href="#ArialMT-65" x="133.447266"/>
      <use xlink:href="#ArialMT-61" x="189.0625"/>
      <use xlink:href="#ArialMT-70" x="244.677734"/>
      <use xlink:href="#ArialMT-70" x="300.292969"/>
      <use xlink:href="#ArialMT-6c" x="355.908203"/>
      <use xlink:href="#ArialMT-65" x="378.125"/>
      <use xlink:href="#ArialMT-50" x="433.740234"/>
      <use xlink:href="#ArialMT-72" x="500.439453"/>
      <use xlink:href="#ArialMT-6f" x="533.740234"/>
      <use xlink:href="#ArialMT-64" x="589.355469"/>
      <use xlink:href="#ArialMT-50" x="644.970703"/>
      <use xlink:href="#ArialMT-72" x="711.669922"/>
      <use xlink:href="#ArialMT-6f" x="744.970703"/>
      <use xlink:href="#ArialMT-64" x="800.585938"/>
      <use xlink:href="#ArialMT-75" x="856.201172"/>
      <use xlink:href="#ArialMT-63" x="911.816406"/>
      <use xlink:href="#ArialMT-74" x="961.816406"/>
      <use xlink:href="#ArialMT-69" x="989.599609"/>
      <use xlink:href="#ArialMT-76" x="1011.816406"/>
      <use xlink:href="#ArialMT-69" x="1061.816406"/>
      <use xlink:href="#ArialMT-74" x="1084.033203"/>
      <use xlink:href="#ArialMT-79" x="1111.816406"/>
     </g>
    </g>
    <g id="line2d_54">
     <path d="M 416.74 273.139925 
L 426.74 273.139925 
L 436.74 273.139925 
" style="fill: none; stroke: #4c72b0; stroke-width: 1.75; stroke-linecap: round"/>
     <g>
      <use xlink:href="#ma656b4fa39" x="426.74" y="273.139925" style="fill: #4c72b0"/>
     </g>
    </g>
    <g id="text_32">
     <!-- pineappleProdProfitability -->
     <g style="fill: #262626" transform="translate(444.74 276.639925) scale(0.1 -0.1)">
      <use xlink:href="#ArialMT-70"/>
      <use xlink:href="#ArialMT-69" x="55.615234"/>
      <use xlink:href="#ArialMT-6e" x="77.832031"/>
      <use xlink:href="#ArialMT-65" x="133.447266"/>
      <use xlink:href="#ArialMT-61" x="189.0625"/>
      <use xlink:href="#ArialMT-70" x="244.677734"/>
      <use xlink:href="#ArialMT-70" x="300.292969"/>
      <use xlink:href="#ArialMT-6c" x="355.908203"/>
      <use xlink:href="#ArialMT-65" x="378.125"/>
      <use xlink:href="#ArialMT-50" x="433.740234"/>
      <use xlink:href="#ArialMT-72" x="500.439453"/>
      <use xlink:href="#ArialMT-6f" x="533.740234"/>
      <use xlink:href="#ArialMT-64" x="589.355469"/>
      <use xlink:href="#ArialMT-50" x="644.970703"/>
      <use xlink:href="#ArialMT-72" x="711.669922"/>
      <use xlink:href="#ArialMT-6f" x="744.970703"/>
      <use xlink:href="#ArialMT-66" x="800.585938"/>
      <use xlink:href="#ArialMT-69" x="828.369141"/>
      <use xlink:href="#ArialMT-74" x="850.585938"/>
      <use xlink:href="#ArialMT-61" x="878.369141"/>
      <use xlink:href="#ArialMT-62" x="933.984375"/>
      <use xlink:href="#ArialMT-69" x="989.599609"/>
      <use xlink:href="#ArialMT-6c" x="1011.816406"/>
      <use xlink:href="#ArialMT-69" x="1034.033203"/>
      <use xlink:href="#ArialMT-74" x="1056.25"/>
      <use xlink:href="#ArialMT-79" x="1084.033203"/>
     </g>
    </g>
    <g id="line2d_55">
     <path d="M 416.74 287.402425 
L 426.74 287.402425 
L 436.74 287.402425 
" style="fill: none; stroke: #55a868; stroke-width: 1.75; stroke-linecap: round"/>
     <g>
      <use xlink:href="#m684675e5b3" x="426.74" y="287.402425" style="fill: #55a868"/>
     </g>
    </g>
    <g id="text_33">
     <!-- pollution -->
     <g style="fill: #262626" transform="translate(444.74 290.902425) scale(0.1 -0.1)">
      <use xlink:href="#ArialMT-70"/>
      <use xlink:href="#ArialMT-6f" x="55.615234"/>
      <use xlink:href="#ArialMT-6c" x="111.230469"/>
      <use xlink:href="#ArialMT-6c" x="133.447266"/>
      <use xlink:href="#ArialMT-75" x="155.664062"/>
      <use xlink:href="#ArialMT-74" x="211.279297"/>
      <use xlink:href="#ArialMT-69" x="239.0625"/>
      <use xlink:href="#ArialMT-6f" x="261.279297"/>
      <use xlink:href="#ArialMT-6e" x="316.894531"/>
     </g>
    </g>
    <g id="line2d_56">
     <path d="M 416.74 301.547737 
L 426.74 301.547737 
L 436.74 301.547737 
" style="fill: none; stroke: #c44e52; stroke-width: 1.75; stroke-linecap: round"/>
     <g>
      <use xlink:href="#me2587d9510" x="426.74" y="301.547737" style="fill: #c44e52"/>
     </g>
    </g>
    <g id="text_34">
     <!-- ranchersProductivity -->
     <g style="fill: #262626" transform="translate(444.74 305.047737) scale(0.1 -0.1)">
      <use xlink:href="#ArialMT-72"/>
      <use xlink:href="#ArialMT-61" x="33.300781"/>
      <use xlink:href="#ArialMT-6e" x="88.916016"/>
      <use xlink:href="#ArialMT-63" x="144.53125"/>
      <use xlink:href="#ArialMT-68" x="194.53125"/>
      <use xlink:href="#ArialMT-65" x="250.146484"/>
      <use xlink:href="#ArialMT-72" x="305.761719"/>
      <use xlink:href="#ArialMT-73" x="339.0625"/>
      <use xlink:href="#ArialMT-50" x="389.0625"/>
      <use xlink:href="#ArialMT-72" x="455.761719"/>
      <use xlink:href="#ArialMT-6f" x="489.0625"/>
      <use xlink:href="#ArialMT-64" x="544.677734"/>
      <use xlink:href="#ArialMT-75" x="600.292969"/>
      <use xlink:href="#ArialMT-63" x="655.908203"/>
      <use xlink:href="#ArialMT-74" x="705.908203"/>
      <use xlink:href="#ArialMT-69" x="733.691406"/>
      <use xlink:href="#ArialMT-76" x="755.908203"/>
      <use xlink:href="#ArialMT-69" x="805.908203"/>
      <use xlink:href="#ArialMT-74" x="828.125"/>
      <use xlink:href="#ArialMT-79" x="855.908203"/>
     </g>
    </g>
    <g id="line2d_57">
     <path d="M 416.74 315.810237 
L 426.74 315.810237 
L 436.74 315.810237 
" style="fill: none; stroke: #8172b2; stroke-width: 1.75; stroke-linecap: round"/>
     <g>
      <use xlink:href="#m1557c922e1" x="426.74" y="315.810237" style="fill: #8172b2"/>
     </g>
    </g>
    <g id="text_35">
     <!-- soilFertil -->
     <g style="fill: #262626" transform="translate(444.74 319.310237) scale(0.1 -0.1)">
      <use xlink:href="#ArialMT-73"/>
      <use xlink:href="#ArialMT-6f" x="50"/>
      <use xlink:href="#ArialMT-69" x="105.615234"/>
      <use xlink:href="#ArialMT-6c" x="127.832031"/>
      <use xlink:href="#ArialMT-46" x="150.048828"/>
      <use xlink:href="#ArialMT-65" x="211.132812"/>
      <use xlink:href="#ArialMT-72" x="266.748047"/>
      <use xlink:href="#ArialMT-74" x="300.048828"/>
      <use xlink:href="#ArialMT-69" x="327.832031"/>
      <use xlink:href="#ArialMT-6c" x="350.048828"/>
     </g>
    </g>
    <g id="line2d_58">
     <path d="M 416.74 329.95555 
L 426.74 329.95555 
L 436.74 329.95555 
" style="fill: none; stroke: #ccb974; stroke-width: 1.75; stroke-linecap: round"/>
     <g>
      <use xlink:href="#m954a807a74" x="426.74" y="329.95555" style="fill: #ccb974"/>
     </g>
    </g>
    <g id="text_36">
     <!-- stableFly -->
     <g style="fill: #262626" transform="translate(444.74 333.45555) scale(0.1 -0.1)">
      <use xlink:href="#ArialMT-73"/>
      <use xlink:href="#ArialMT-74" x="50"/>
      <use xlink:href="#ArialMT-61" x="77.783203"/>
      <use xlink:href="#ArialMT-62" x="133.398438"/>
      <use xlink:href="#ArialMT-6c" x="189.013672"/>
      <use xlink:href="#ArialMT-65" x="211.230469"/>
      <use xlink:href="#ArialMT-46" x="266.845703"/>
      <use xlink:href="#ArialMT-6c" x="327.929688"/>
      <use xlink:href="#ArialMT-79" x="350.146484"/>
     </g>
    </g>
    <g id="line2d_59">
     <path d="M 416.74 344.21805 
L 426.74 344.21805 
L 436.74 344.21805 
" style="fill: none; stroke: #64b5cd; stroke-width: 1.75; stroke-linecap: round"/>
     <g>
      <use xlink:href="#m9f4d677739" x="426.74" y="344.21805" style="fill: #64b5cd"/>
     </g>
    </g>
    <g id="text_37">
     <!-- stubbleMgmtRegulation -->
     <g style="fill: #262626" transform="translate(444.74 347.71805) scale(0.1 -0.1)">
      <defs>
       <path id="ArialMT-4d" d="M 475 0 
L 475 4581 
L 1388 4581 
L 2472 1338 
Q 2622 884 2691 659 
Q 2769 909 2934 1394 
L 4031 4581 
L 4847 4581 
L 4847 0 
L 4263 0 
L 4263 3834 
L 2931 0 
L 2384 0 
L 1059 3900 
L 1059 0 
L 475 0 
z
" transform="scale(0.015625)"/>
      </defs>
      <use xlink:href="#ArialMT-73"/>
      <use xlink:href="#ArialMT-74" x="50"/>
      <use xlink:href="#ArialMT-75" x="77.783203"/>
      <use xlink:href="#ArialMT-62" x="133.398438"/>
      <use xlink:href="#ArialMT-62" x="189.013672"/>
      <use xlink:href="#ArialMT-6c" x="244.628906"/>
      <use xlink:href="#ArialMT-65" x="266.845703"/>
      <use xlink:href="#ArialMT-4d" x="322.460938"/>
      <use xlink:href="#ArialMT-67" x="405.761719"/>
      <use xlink:href="#ArialMT-6d" x="461.376953"/>
      <use xlink:href="#ArialMT-74" x="544.677734"/>
      <use xlink:href="#ArialMT-52" x="572.460938"/>
      <use xlink:href="#ArialMT-65" x="644.677734"/>
      <use xlink:href="#ArialMT-67" x="700.292969"/>
      <use xlink:href="#ArialMT-75" x="755.908203"/>
      <use xlink:href="#ArialMT-6c" x="811.523438"/>
      <use xlink:href="#ArialMT-61" x="833.740234"/>
      <use xlink:href="#ArialMT-74" x="889.355469"/>
      <use xlink:href="#ArialMT-69" x="917.138672"/>
      <use xlink:href="#ArialMT-6f" x="939.355469"/>
      <use xlink:href="#ArialMT-6e" x="994.970703"/>
     </g>
    </g>
   </g>
  </g>
 </g>
 <defs>
  <clipPath id="p00d911fa01">
   <rect x="45.83" y="21.046" width="361.91" height="334.434"/>
  </clipPath>
 </defs>
</svg>
